<?xml version="1.0" encoding="utf-8"?>
<!-- Generator: Adobe Illustrator 19.0.0, SVG Export Plug-In . SVG Version: 6.00 Build 0)  -->
<svg version="1.1" id="Calque_1" xmlns="http://www.w3.org/2000/svg" xmlns:xlink="http://www.w3.org/1999/xlink" x="0px" y="0px"
	 viewBox="0 0 1133.9 1133.9" style="enable-background:new 0 0 1133.9 1133.9;" xml:space="preserve">
<style type="text/css">
	.st0{fill:#FFFFFF;}
</style>
<g>
	<path class="st0" d="M367.3,449.1c0-115.6,0-231.3,0-346.9c0-27.2,9.2-50.8,29.2-69.3c30-27.8,65.1-35.1,102.7-19.1
		c38.5,16.4,58,47.7,58.3,89.3c0.6,89.8,0.2,179.6,0.2,269.5c0,143,0,285.9-0.2,428.9c0,7.5,2.5,12,8.3,16.7
		c57.3,45.2,81.5,104.3,65,175.5c-16.4,70.8-62.7,115.3-134.1,130.8c-107.8,23.5-211.1-65-206.3-175.8
		c2.3-54.2,25.6-97.6,68.4-130.5c6.4-4.9,8.7-9.7,8.7-17.6C367.2,683.4,367.3,566.3,367.3,449.1z M402.6,458.2
		c0,117.9-0.2,235.7,0.2,353.6c0,13.5-4.3,21.9-15.8,29.3c-49.6,31.7-72.4,92.1-57.4,148.8c15,56.6,65.2,98.7,122.6,102.7
		c63.9,4.5,121.6-33.8,141.4-93.8c19.8-60.1-2.9-124-57-158.5c-10.4-6.6-14.5-14.3-14.5-26.5c0.3-153,0.2-306,0.2-459.1
		c0-83.8,0.1-167.6-0.1-251.4c-0.1-36.2-26.3-62.5-61.1-62c-33.4,0.4-58.4,26.8-58.5,62.2C402.5,221.7,402.6,340,402.6,458.2z"/>
	<path class="st0" d="M732.1,393.8c-28.8,0-57.6,0.1-86.4,0c-14.7,0-22.4-6.2-22.4-17.7s7.7-17.6,22.4-17.6c58.8,0,117.5,0,176.3,0
		c14.4,0,22,6.5,21.7,18.2c-0.3,11.1-7.8,17.1-21.7,17.2C792,393.8,762,393.8,732.1,393.8z"/>
	<path class="st0" d="M733.7,640.1c-28.1,0-56.1,0-84.2,0c-3.7,0-7.5,0.1-11.2-0.6c-10.1-1.7-16.2-9.3-15.1-18.9
		c1.2-10,7.3-15.5,17.3-15.5c25.4-0.2,50.9-0.1,76.3-0.1c35.2,0,70.3-0.1,105.5,0c13.9,0,21.3,6.3,21.3,17.4
		c0,11-7.6,17.6-21.3,17.6C792.8,640.2,763.3,640.1,733.7,640.1z"/>
	<path class="st0" d="M733.4,147.2c-29.2,0-58.4,0-87.6,0c-14.5,0-22.5-6.3-22.4-17.6c0-11.2,8.1-17.6,22.6-17.6
		c58-0.1,116-0.1,174-0.1c2.2,0,4.5-0.1,6.7,0.2c10.9,1.4,17.2,8.7,16.6,18.8c-0.6,9.6-7.3,16.1-18,16.1
		C794.7,147.3,764.1,147.2,733.4,147.2z"/>
	<path class="st0" d="M677.9,270.4c-12,0-23.9,0.2-35.9-0.1c-11.2-0.2-18.3-6.8-18.7-16.6c-0.4-10.5,6.6-18.3,18.1-18.5
		c24.3-0.4,48.6-0.4,72.9,0c10.8,0.2,18,8.2,17.8,17.8c-0.2,9.7-7.6,16.9-18.4,17.2C701.8,270.6,689.8,270.4,677.9,270.4z"/>
	<path class="st0" d="M677.7,481.7c12,0,23.9-0.2,35.9,0.1c10.8,0.2,18.3,7.3,18.5,17c0.3,9.6-6.9,17.8-17.7,18
		c-24.7,0.5-49.4,0.5-74,0c-10.8-0.2-17.5-8.3-17.2-18.2c0.3-10,7.3-16.5,18.6-16.7C653.8,481.6,665.8,481.8,677.7,481.7
		C677.7,481.8,677.7,481.7,677.7,481.7z"/>
	<path class="st0" d="M677.5,762.8c-11.9,0-23.9,0.3-35.8-0.1c-11.1-0.3-18.1-7.2-18.2-17c-0.1-9.9,6.7-17.3,17.8-17.5
		c24.3-0.4,48.5-0.4,72.8,0c11.2,0.2,17.8,7.4,17.6,17.6c-0.2,10.1-6.9,16.6-18.3,16.9C701.4,763.1,689.4,762.8,677.5,762.8z"/>
	<path class="st0" d="M479.5,586.3c0,84.9,0.1,169.9-0.2,254.8c0,10.7,2.1,16.1,13.7,19.7c45.9,14.2,71.8,59.1,64.4,108.4
		c-6.6,44.2-47.7,78.3-94.5,78.4c-47.2,0.1-86.9-33-95-79.3c-8.2-47.2,20-94.4,65.7-107.9c9.7-2.9,12.7-6.8,12.6-16.8
		c-0.3-170.3-0.2-340.5-0.2-510.8c0-3-0.1-6,0.1-9c0.5-10.9,6.4-17.1,16.5-17.2c10.2-0.1,16.4,5.7,16.6,16.8
		c0.4,25.1,0.3,50.1,0.3,75.2C479.6,461.3,479.6,523.8,479.5,586.3C479.6,586.3,479.5,586.3,479.5,586.3z"/>
</g>
</svg>
