<?xml version="1.0" encoding="utf-8"?>
<!-- Generator: Adobe Illustrator 19.0.0, SVG Export Plug-In . SVG Version: 6.00 Build 0)  -->
<svg version="1.1" id="Calque_1" xmlns="http://www.w3.org/2000/svg" xmlns:xlink="http://www.w3.org/1999/xlink" x="0px" y="0px"
	 viewBox="0 0 1133.9 566.9" style="enable-background:new 0 0 1133.9 566.9;" xml:space="preserve">
<style type="text/css">
	.st0{display:none;}
	.st1{display:inline;fill:#EAEAEA;}
	.st2{display:inline;fill:#B5B4B4;}
	.st3{display:inline;fill:#FAE566;}
	.st4{fill:#7BC3ED;}
	.st5{fill:#EAEAEA;}
	.st6{fill:#B5B4B4;}
	.st7{display:inline;fill:#7BC3ED;}
	.st8{display:inline;}
	.st9{fill:#D3EBF0;}
	.st10{fill:#B0AFAF;}
	.st11{display:inline;fill:#F0F0F0;}
</style>
<g id="Calque_1_2_">
	<g id="XMLID_180_" class="st0">
		<path id="XMLID_182_" class="st1" d="M598.5,109.3c-6.6-4.8-12.3-10.3-16.7-16.6c-10.5-15.1-25.4-30.1-35.3-37.9
			c-31.3-24.6-67-39.6-105.2-47.2c-146.1-29.1-285.3,74.2-313,223c-3.1,16.6-5.7,30.5-23.2,39.2c-61.3,30.4-93.4,103-78.1,172.4
			c15.9,72.3,74.4,122.3,144.7,122.5c142.3,0.3,284.6,0.6,426.9,0.4L598.5,109.3L598.5,109.3z"/>
		<path id="XMLID_181_" class="st2" d="M1102.3,368.9c2.5,11.7,6,23.3,7.2,35.1c6.2,57.4-13.3,103.7-58.4,137.2
			c-23.7,17.6-52.1,21.1-80.6,21.6c-47.4,0.8-478.1,2-537.1,2.4c-50.3,0.3-108.6-29.8-128.3-92.1c-18.2-57.7,1.4-126.5,47.5-161.9
			c3.2-2.5,7.1-4.1,10.8-5.7c17-7.2,24.4-19.7,28.4-39.1C426.6,96.7,591.7,22.8,731,88.5c22,10.4,40.4,19.8,56.9,37.8
			c12.1,14.4,25,34.6,49.9,29.2c77.8-16.7,164.9,29.6,187.5,118.7c2.8,11,6.1,22.8,16.6,28.1C1070.5,316.6,1087.1,342,1102.3,368.9z
			"/>
	</g>
	<g id="XMLID_172_" class="st0">
		<path id="XMLID_179_" class="st1" d="M770.4,420.3c1.9,8.6,4.5,17,5.5,25.7c4.7,42-10.1,75.9-44.4,100.3
			c-18,12.8-39.6,15.4-61.3,15.8c-36.1,0.6-72.1-1.9-108.2,0.8c-17.4,1.3-34.9-1.3-52.5-1.4c-37.7-0.2-75.2,2.2-113,0.7
			c-44.8-1.8-89.7,1.3-134.5,1.6c-38.3,0.2-82.6-21.8-97.5-67.3c-13.8-42.2,1-92.5,36.1-118.4c2.4-1.8,5.4-3,8.2-4.2
			c12.9-5.3,18.5-14.4,21.6-28.6c26.5-124.1,151-175.9,257.8-130.1c22.4,9.6,35.1,17.7,46.8,28.8c10.3,9.3,15.5,24.1,34.4,20.2
			c59.1-12.2,125.4,21.6,142.5,86.8c2.1,8,4.6,16.7,12.6,20.6C746.2,382,758.8,400.6,770.4,420.3z"/>
		<path id="XMLID_178_" class="st3" d="M770.4,420.3c-11.6-19.7-24.2-38.3-45.8-48.8c-8-3.9-10.5-12.6-12.6-20.6
			c-17.1-65.2-83.4-99-142.5-86.8c-18.9,3.9-25.2-9.7-34.4-20.2c21.5-55.2,60.6-90.1,118.9-102.2c73.8-15.4,143.3,30.4,168.7,89.5
			c17.7,41.2,18.3,82,0.4,124.2C811.3,382.7,793.4,403.1,770.4,420.3z"/>
		<path id="XMLID_177_" class="st3" d="M933.4,276.5c7.7,0,15.5-0.5,23.1,0.1c9.4,0.8,14.8,7.3,16.5,15.9
			c1.8,8.8-3.2,15.6-11.1,18.1c-19,5.9-38.5,5.8-57.5-0.1c-8.9-2.8-13.3-11.5-11.7-19.1c1.6-7.3,7.6-14.6,17.5-14.7
			c7.7,0,15.4,0,23.2,0C933.4,276.7,933.4,276.6,933.4,276.5z"/>
		<path id="XMLID_176_" class="st3" d="M537,129.7c-1.1,8.6-5.7,13.9-12.4,17.5s-13.5,2.1-18.7-2.7c-10.9-10.2-21.6-20.7-31.6-31.8
			c-6.4-7.1-5.2-15.1,0.9-22.4c5.6-6.7,12.8-10.5,20.3-5.5c15.8,10.5,27,26.2,40.1,39.7C536.9,125.7,536.7,128.3,537,129.7z"/>
		<path id="XMLID_175_" class="st3" d="M847.4,441.1c1.9,0.7,6.6,1.1,8.3,3.5c8.8,12.2,23.3,18.6,30.8,32c4.6,8.2,7.5,15.9-0.3,23.7
			c-8.2,8.2-16.4,8.2-26.3,2c-13.8-8.6-21-22.9-31-34.5C820.2,457.6,831.9,440.8,847.4,441.1z"/>
		<path id="XMLID_174_" class="st3" d="M663.5,42.5c0-6.7-0.6-13.4,0.1-20c1.2-10.8,7.5-18.7,18.4-19.2c11.2-0.6,18.7,6.4,19.4,17.7
			c0.8,13.8,0.9,27.8,0,41.6c-0.8,11.4-9.4,17.6-19.8,17.9c-10.8,0.3-16.2-8.2-17.9-17.9c-1.2-6.5-0.2-13.3-0.2-20
			C663.4,42.5,663.5,42.5,663.5,42.5z"/>
		<path id="XMLID_173_" class="st3" d="M827.6,129.8c0.2-5.6,1.9-9.9,5.4-13.3c9.1-9.1,18-18.5,27.4-27.3c8.4-8,17.8-8.2,26.3-0.3
			c8.6,8,9.2,17.5,1.2,26c-9.9,10.5-20.5,20.3-31.1,30.2c-5.6,5.2-12.2,4.9-18.7,1.6C830.9,143,827.7,136.9,827.6,129.8z"/>
	</g>
	<g id="XMLID_170_" class="st0">
		<path id="XMLID_171_" class="st1" d="M1033.3,345.2c2.9,13.2,7,26.2,8.5,39.5c7.3,64.6-15.6,116.8-68.3,154.4
			c-27.7,19.8-61,23.7-94.4,24.3c-55.5,0.9-559.6,2.2-628.7,2.7c-58.9,0.4-127.2-33.6-150.1-103.7c-21.3-65,1.6-142.4,55.6-182.3
			c3.7-2.8,8.3-4.6,12.6-6.4c19.9-8.1,28.6-22.1,33.2-44c40.8-191.1,234-274.3,397-200.3c25.7,11.7,47.3,22.3,66.6,42.5
			c14.2,16.2,29.3,38.9,58.4,32.9c91.1-18.8,193.1,33.3,219.4,133.7c3.2,12.3,7.1,25.7,19.5,31.7
			C996,286.3,1015.4,314.9,1033.3,345.2z"/>
	</g>
	<g id="XMLID_155_">
		<g id="XMLID_162_">
			<polygon id="XMLID_169_" class="st4" points="412.5,348 427.9,348 353.4,494.6 			"/>
			<polygon id="XMLID_168_" class="st4" points="454.9,348 477.5,348 365.3,565.1 			"/>
			<polygon id="XMLID_167_" class="st4" points="502.8,348 522.2,348 435.1,516.4 			"/>
			<polygon id="XMLID_166_" class="st4" points="556.3,348 582,348 471.9,558 			"/>
			<polygon id="XMLID_165_" class="st4" points="622.9,348 642.3,348 553.9,516.4 			"/>
			<polyline id="XMLID_164_" class="st4" points="701.9,348 595.3,549.3 676.9,348 			"/>
			<polyline id="XMLID_163_" class="st4" points="754.8,348 678.3,494.6 736.4,348 			"/>
		</g>
		<path id="XMLID_161_" class="st5" d="M588.6,68.3c-4.2-2.9-7.9-6.3-10.7-10.2c-6.7-9.3-16.3-18.5-22.6-23.3
			c-20-15.1-42.8-24.4-67.3-29.1c-93.5-17.9-182.5,45.6-200.2,137.2c-2,10.2-3.7,18.8-14.9,24.1c-39.2,18.7-59.7,63.4-50,106.1
			c10.2,44.5,47.6,75.3,92.6,75.4c91,0.2,182,0.4,273.1,0.2V68.3z"/>
		<path id="XMLID_160_" class="st6" d="M910.9,228c1.6,7.2,3.8,14.3,4.6,21.6c4,35.3-8.5,63.8-37.3,84.4
			c-15.1,10.8-33.3,13-51.6,13.3c-30.3,0.5-305.8,1.2-343.6,1.4c-32.2,0.2-69.5-18.4-82.1-56.7c-11.6-35.5,0.9-77.8,30.4-99.6
			c2-1.5,4.5-2.5,6.9-3.5c10.9-4.4,15.6-12.1,18.2-24C478.7,60.5,584.3,15,673.4,55.4c14.1,6.4,25.8,12.2,36.4,23.2
			c7.8,8.9,16,21.3,31.9,18c49.8-10.3,105.5,18.2,119.9,73c1.8,6.7,3.9,14,10.6,17.3C890.6,195.8,901.2,211.4,910.9,228z"/>
		<path id="XMLID_159_" class="st4" d="M473.8,315.8c-14.4-20.8-18.7-50.6-18.7-50.6s-4.3,29.8-18.7,50.6
			c-14.7,21.2-48.5,59.2-48.5,91.1s28.4,60.6,67.2,60.6c38.8,0,67.2-28.7,67.2-60.6S488.4,337,473.8,315.8z"/>
		<path id="XMLID_158_" class="st4" d="M579.1,237.9c-6.9-9.9-8.9-24.2-8.9-24.2s-2.1,14.3-8.9,24.2c-7,10.2-23.2,28.3-23.2,43.6
			s13.6,29,32.2,29s32.2-13.8,32.2-29S586.1,248.1,579.1,237.9z"/>
		<path id="XMLID_157_" class="st4" d="M714.1,331.4c-9.9-14.4-12.9-34.9-12.9-34.9s-3,20.6-12.9,34.9
			c-10.1,14.7-33.5,40.9-33.5,62.9s19.6,41.9,46.4,41.9c26.8,0,46.4-19.9,46.4-41.9S724.3,346.1,714.1,331.4z"/>
		<path id="XMLID_156_" class="st4" d="M595.2,477.7c-6.1-8.9-8-21.5-8-21.5s-1.8,12.7-8,21.5c-6.3,9-20.7,25.2-20.7,38.8
			c0,13.6,12.1,25.8,28.6,25.8s28.6-12.2,28.6-25.8C615.9,503,601.5,486.8,595.2,477.7z"/>
	</g>
	<g id="XMLID_149_" class="st0">
		<path id="XMLID_154_" class="st1" d="M865.4,221.7c1.8,8.4,4.5,16.8,5.4,25.3c4.7,41.3-10,74.7-43.7,98.8
			c-17.7,12.7-39,15.2-60.3,15.5c-35.5,0.6-357.9,1.4-402.1,1.7c-37.7,0.2-81.3-21.5-96-66.3c-13.6-41.5,1-91.1,35.6-116.6
			c2.4-1.8,5.3-3,8.1-4.1c12.7-5.2,18.3-14.2,21.2-28.1C359.7,25.7,483.3-27.5,587.5,19.8c16.4,7.5,30.2,14.3,42.6,27.2
			c9.1,10.4,18.7,24.9,37.4,21c58.2-12,123.5,21.3,140.3,85.5c2.1,7.9,4.6,16.4,12.5,20.3C841.6,184,854,202.3,865.4,221.7z"/>
		<path id="XMLID_153_" class="st7" d="M449.7,313.5c-17.7-25.6-23-62.3-23-62.3s-5.3,36.7-23,62.3c-18.1,26.1-59.7,72.9-59.7,112.2
			c0,39.2,35,74.6,82.7,74.6s82.7-35.4,82.7-74.6C509.4,386.4,467.8,339.6,449.7,313.5z"/>
		<path id="XMLID_152_" class="st7" d="M579.4,217.6c-8.5-12.2-11-29.8-11-29.8s-2.6,17.6-11,29.8c-8.7,12.5-28.6,34.9-28.6,53.7
			s16.7,35.7,39.6,35.7c22.9,0,39.6-16.9,39.6-35.7S588.1,230.1,579.4,217.6z"/>
		<path id="XMLID_151_" class="st7" d="M730.7,324.5c-12.2-17.7-15.9-43-15.9-43s-3.7,25.3-15.9,43c-12.5,18.1-41.2,50.4-41.2,77.5
			s24.2,51.5,57.1,51.5s57.1-24.4,57.1-51.5S743.2,342.5,730.7,324.5z"/>
		<path id="XMLID_150_" class="st7" d="M598.7,485.3c-7.5-10.9-9.8-26.5-9.8-26.5s-2.3,15.6-9.8,26.5c-7.7,11.1-25.4,31.1-25.4,47.8
			c0,16.7,14.9,31.8,35.3,31.8c20.4,0,35.3-15.1,35.3-31.8C624.3,516.4,606.4,496.4,598.7,485.3z"/>
	</g>
	<g id="XMLID_134_" class="st0">
		<path id="XMLID_148_" class="st1" d="M586.4,68.4c-4.2-2.9-7.9-6.3-10.7-10.2c-6.8-9.3-16.3-18.6-22.7-23.4
			c-20-15.2-42.9-24.5-67.4-29.2c-93.7-18-182.9,45.7-200.6,137.5c-2,10.2-3.7,18.8-14.9,24.2c-39.3,18.8-59.9,63.5-50.1,106.3
			c10.2,44.6,47.7,75.4,92.8,75.5c91.2,0.2,182.4,0.4,273.6,0.2V68.4z"/>
		<g id="XMLID_139_" class="st8">
			<polygon id="XMLID_147_" class="st4" points="411.6,347.2 427,347.2 352.7,493.3 			"/>
			<polygon id="XMLID_145_" class="st4" points="453.9,347.2 476.4,347.2 364.6,563.7 			"/>
			<polygon id="XMLID_144_" class="st4" points="501.7,347.2 521,347.2 434.1,515.1 			"/>
			<polygon id="XMLID_143_" class="st4" points="555,347.2 580.7,347.2 470.9,556.6 			"/>
			<polygon id="XMLID_142_" class="st4" points="621.4,347.2 640.8,347.2 552.7,515.1 			"/>
			<polyline id="XMLID_141_" class="st4" points="700.2,347.2 593.9,547.9 675.3,347.2 			"/>
			<polyline id="XMLID_140_" class="st4" points="753,347.2 676.7,493.3 734.6,347.2 			"/>
		</g>
		<polygon id="XMLID_138_" class="st3" points="780.5,341.3 763.6,402.1 814.4,402.1 804.8,484.5 857.7,380.3 807.6,380.2 
			820.1,341.3 		"/>
		<polygon id="XMLID_137_" class="st3" points="415.4,323.9 394.1,400.7 458.4,400.7 446.1,504.8 513,373.1 449.7,373.1 
			465.5,323.9 		"/>
		<path id="XMLID_136_" class="st2" d="M909.4,228.5c1.6,7.2,3.8,14.4,4.6,21.6c4,35.4-8.5,64-37.4,84.6
			c-15.2,10.8-33.4,13-51.7,13.3c-30.4,0.5-306.5,1.2-344.3,1.5c-32.3,0.2-69.6-18.4-82.2-56.8c-11.7-35.6,0.9-78,30.5-99.8
			c2.1-1.5,4.5-2.5,6.9-3.5c10.9-4.4,15.6-12.1,18.2-24.1C476.3,60.6,582.2,15,671.4,55.5c14.1,6.4,25.9,12.2,36.5,23.3
			c7.8,8.9,16,21.3,32,18C789.8,86.5,845.6,115,860.1,170c1.8,6.8,3.9,14.1,10.7,17.4C889,196.2,899.6,211.9,909.4,228.5z"/>
		<polygon id="XMLID_135_" class="st3" points="583,304.5 552.3,415.1 644.9,415.1 627.3,565.1 723.6,375.4 632.4,375.3 
			655.1,304.5 		"/>
	</g>
	<g id="XMLID_127_" class="st0">
		<path id="XMLID_133_" class="st1" d="M586.6,68.4c-4.2-2.9-7.9-6.3-10.7-10.2c-6.8-9.3-16.3-18.6-22.7-23.4
			c-20.1-15.2-42.9-24.4-67.4-29.1c-93.7-18-182.9,45.7-200.6,137.5c-2,10.2-3.7,18.8-14.9,24.2c-39.3,18.8-59.9,63.5-50.1,106.3
			c10.2,44.6,47.7,75.4,92.8,75.5c91.2,0.2,182.4,0.4,273.6,0.2V68.4z"/>
		<polygon id="XMLID_132_" class="st3" points="780.6,341.3 763.8,402.1 814.6,402.1 804.9,484.5 857.8,380.3 807.8,380.2 
			820.3,341.3 		"/>
		<polygon id="XMLID_131_" class="st3" points="415.6,323.9 394.3,400.7 458.5,400.7 446.3,504.8 513.1,373.1 449.9,373.1 
			465.6,323.9 		"/>
		<path id="XMLID_130_" class="st2" d="M909.6,228.5c1.6,7.2,3.8,14.4,4.6,21.6c4,35.4-8.5,64-37.4,84.6
			c-15.2,10.8-33.4,13-51.7,13.3c-30.4,0.5-306.5,1.2-344.3,1.5c-32.3,0.2-69.6-18.4-82.2-56.8c-11.7-35.6,0.9-78,30.5-99.8
			c2.1-1.5,4.5-2.5,6.9-3.5c10.9-4.4,15.6-12.1,18.2-24.1C476.5,60.6,582.3,15,671.6,55.5c14.1,6.4,25.9,12.2,36.5,23.3
			c7.8,8.9,16,21.3,32,18C790,86.5,845.8,115,860.3,170c1.8,6.8,3.9,14.1,10.7,17.4C889.2,196.2,899.8,211.9,909.6,228.5z"/>
		<polygon id="XMLID_128_" class="st3" points="583.2,304.5 552.4,415.1 645.1,415.1 627.4,565.1 723.8,375.4 632.6,375.3 
			655.3,304.5 		"/>
	</g>
	<g id="XMLID_48_" class="st0">
		<g id="XMLID_64_" class="st8">
			<path id="XMLID_65_" class="st5" d="M815.8,186.1c1.5,7.1,3.7,14,4.5,21.2c3.9,34.6-8.3,62.6-36.6,82.7
				c-14.8,10.6-32.7,12.7-50.5,13c-29.7,0.5-299.7,1.2-336.7,1.4c-31.5,0.2-68.1-18-80.4-55.5c-11.4-34.8,0.9-76.3,29.8-97.6
				c2-1.5,4.4-2.5,6.8-3.4c10.6-4.3,15.3-11.9,17.8-23.6C392.3,22,495.8-22.6,583.1,17c13.8,6.3,25.3,12,35.7,22.8
				c7.6,8.7,15.7,20.8,31.3,17.6c48.8-10.1,103.4,17.8,117.5,71.6c1.7,6.6,3.8,13.8,10.4,17C795.8,154.5,806.2,169.8,815.8,186.1z"
				/>
		</g>
		<g id="XMLID_62_" class="st8">
			<path id="XMLID_63_" class="st9" d="M577.6,547.3c-4.4,2.8-7.9,5.2-11.5,7.3c-0.8,0.5-2.8,0.7-3.1,0.3c-1-1.4-2.4-3.1,0.1-4.6
				c4.1-2.6,8.2-5.3,12.3-7.8c1.8-1.1,2.6-2.5,2.5-4.8c-0.2-6.3,0-12.5-0.1-18.8c0-0.8-0.3-1.6-0.5-2.4c-0.9,0.3-1.8,0.4-2.6,0.8
				c-5.4,3-10.7,6.1-16,9.1c-2,1.1-2.9,2.6-3,4.9c0,4.7-0.4,9.4-0.5,14.2c0,2.4-1.5,2.8-3.4,2.8c-2,0-2.6-1-2.5-2.9
				c0.3-4.4,0.5-8.7,0.7-13.9c-1.5,0.7-2.5,0.9-3.3,1.4c-3.3,2-6.7,4-9.9,6.1c-1.6,1-2.8,0.9-3.7-0.9c-0.8-1.5-1.3-2.9,0.8-4
				c3.8-1.9,7.6-4,11.4-6.1c0.5-0.3,0.9-0.8,1.8-1.6c-3.3-1.8-6.2-3.4-9.2-5c-0.9-0.5-1.7-0.9-2.6-1.3c-1.2-0.6-2.9-1.2-1.7-3
				c1-1.6,2-3.3,4.6-1.7c4.2,2.5,8.5,4.7,12.9,6.8c1.2,0.5,3.2,0.5,4.3-0.2c5.6-3.1,11-6.5,16.4-9.7c2.5-1.5,2.5-2.1,0-3.7
				c-5.2-3.2-10.5-6.4-15.7-9.7c-1.9-1.2-3.6-1.5-5.7-0.3c-4,2.3-8.2,4.3-12.2,6.6c-2.8,1.6-3.8-0.4-4.9-2c-1.4-2.2,0.8-2.4,2.1-3
				c3.8-1.8,7.7-3.6,11.5-5.3c0-0.4,0-0.8,0-1.1c-2.9-1.7-5.7-3.5-8.6-5.2c-1.4-0.8-3.1-1.3-4.1-2.5c-0.7-0.9-0.4-2.1,0.2-2.9
				c0.7-0.8,1.9-1.6,2.8-1.1c3.4,1.8,6.7,3.9,10,5.8c0.6,0.3,1.3,0.4,2.4,0.7c0-4.5,0.1-8.7,0-12.8c0-1.6,0.1-2.8,2.1-2.8
				c1.9,0,3.2,0.5,3.2,2.7c0.1,4.5,0.2,9.1,0.3,13.6c0,2.2,0.8,3.7,3,4.9c6.1,3.2,12,6.8,18,10.1c0.2,0.1,0.6,0,1.1,0.1
				c0.2-0.5,0.4-1,0.5-1.5c0.2-6.6,0.6-13.1,0.5-19.7c0-1.4-1-3.4-2.1-4.2c-4-2.9-8.2-5.6-12.5-8.1c-2.3-1.4-2.2-2.9-1-4.8
				c1.3-2,2.6-0.6,3.8,0.2c3.5,2.2,7,4.4,11.3,7c0-5.1,0-9.4,0-13.6c0-2.1-0.4-4.3,2.8-4.3c3.4,0,3.1,2.3,3,4.5c0,4.2,0,8.4,0,13
				c0.9-0.3,1.7-0.4,2.4-0.8c2.9-1.8,5.9-3.6,8.7-5.6c1.4-1,2.6-2,4,0c1.2,1.9,1,3.3-1,4.6c-3.8,2.4-7.5,5.1-11.3,7.5
				c-2,1.3-2.9,2.8-2.8,5.3c0.2,6.1,0,12.3,0,18.4c0,0.7,0.2,1.4,0.4,2.6c1.5-0.8,2.7-1.5,3.8-2.1c4.7-2.7,9.3-5.5,14-8
				c2.6-1.4,3.7-3.2,3.7-6.1c0-4.2,0.4-8.4,0.6-12.6c0.1-2.3,2.2-4.1,4.3-3.4c0.7,0.2,1.4,1.7,1.3,2.6c-0.1,4.5-0.5,9-0.8,13.9
				c1.2-0.4,2-0.5,2.7-0.9c3.5-2.1,7.1-4.1,10.5-6.3c2.1-1.4,3.1-0.5,4.1,1.1c1.2,1.9,0.3,2.9-1.4,3.8c-4.2,2.3-8.5,4.6-13.6,7.4
				c4.6,2.3,8.4,4.3,12.3,6.2c2.8,1.4,3.2,2.7,0.8,4.7c-0.7,0.6-2.2,0.7-3,0.3c-4.4-2.1-8.5-4.6-12.9-6.7c-1.3-0.6-3.3-0.8-4.5-0.2
				c-6,3.4-11.8,7.1-17.7,10.7c-0.5,0.3-0.9,0.9-1.6,1.6c2,1.2,3.7,2.4,5.5,3.5c4.6,2.8,9.3,5.5,14,8.1c0.9,0.5,2.6,0.6,3.5,0.1
				c4.1-2,8.1-4.1,12-6.3c3.4-1.9,4.7-1.4,6,2.9c-4.6,2.4-9.2,4.8-14.5,7.6c5,2.7,9.1,5.1,13.4,7.3c2.3,1.2,2.6,2.4,1.1,4.6
				c-1.2,1.6-2.1,1.6-3.7,0.6c-3.5-2.2-7.1-4.1-10.7-6.1c-0.6-0.3-1.4-0.5-2.6-1c0.3,4.6,0.6,8.9,0.8,13.1c0.2,2.8-1,4-3.6,3.1
				c-0.9-0.3-1.9-1.7-2-2.7c-0.5-4.8-0.5-9.7-1-14.5c-0.2-1.5-1.1-3.3-2.3-4.1c-5.4-3.5-11.1-6.6-16.7-9.9c-2-1.2-2.7-0.5-2.7,1.6
				c0,6.6-0.1,13.2,0.1,19.7c0,1.2,1,2.8,2.1,3.6c3.8,2.8,7.8,5.4,11.8,7.9c2.2,1.3,2.4,2.7,1.1,4.8c-1.6,2.5-2.8,0.8-4.2-0.1
				c-3.3-2.2-6.6-4.4-10.5-6.9c-0.2,1.6-0.4,2.5-0.4,3.5c0,3.8,0,7.6,0.1,11.3c0.1,2.1-1,2.9-2.9,2.9c-2,0-2.9-0.9-2.9-3
				c0.1-3.7,0-7.3,0-11C577.8,550.1,577.7,549.1,577.6,547.3z"/>
		</g>
		<g id="XMLID_60_" class="st8">
			<path id="XMLID_61_" class="st9" d="M424.4,460c-5.8,3.7-10.6,6.9-15.5,9.8c-1.1,0.7-3.7,0.9-4.1,0.3c-1.3-1.8-3.2-4.1,0.1-6.2
				c5.5-3.4,10.9-7.1,16.5-10.5c2.5-1.5,3.5-3.4,3.4-6.4c-0.2-8.4-0.1-16.8-0.1-25.1c0-1.1-0.5-2.2-0.7-3.2c-1.2,0.3-2.4,0.5-3.4,1
				c-7.2,4-14.3,8.2-21.5,12.2c-2.7,1.5-3.9,3.4-4,6.6c-0.1,6.3-0.6,12.7-0.7,19c-0.1,3.3-2,3.8-4.6,3.7c-2.6,0-3.5-1.3-3.3-3.9
				c0.4-5.9,0.6-11.7,1-18.6c-2,0.9-3.3,1.3-4.4,1.9c-4.5,2.7-8.9,5.3-13.3,8.1c-2.2,1.4-3.8,1.1-4.9-1.2c-1-2.1-1.8-3.9,1.1-5.4
				c5.1-2.6,10.2-5.4,15.2-8.1c0.7-0.4,1.2-1.1,2.5-2.1c-4.4-2.4-8.4-4.6-12.3-6.7c-1.1-0.6-2.3-1.1-3.5-1.8
				c-1.6-0.9-3.9-1.6-2.3-4.1c1.4-2.1,2.7-4.4,6.2-2.3c5.6,3.3,11.4,6.3,17.2,9.1c1.6,0.7,4.2,0.6,5.8-0.2c7.4-4.1,14.7-8.7,22-13
				c3.3-2,3.4-2.9,0-4.9c-7-4.3-14.1-8.6-21-13c-2.6-1.6-4.8-2-7.6-0.4c-5.4,3.1-11,5.7-16.4,8.9c-3.7,2.2-5.1-0.6-6.5-2.7
				c-1.9-2.9,1.1-3.3,2.8-4c5.1-2.4,10.3-4.8,15.5-7.2c0-0.5,0-1,0.1-1.5c-3.9-2.3-7.7-4.7-11.6-7c-1.8-1.1-4.2-1.8-5.5-3.3
				c-1-1.2-0.5-2.9,0.3-3.9c0.9-1,2.5-2.1,3.8-1.5c4.6,2.4,8.9,5.2,13.4,7.8c0.8,0.5,1.8,0.5,3.2,0.9c0-6,0.1-11.6,0-17.1
				c0-2.1,0.1-3.8,2.8-3.8c2.5,0,4.3,0.6,4.3,3.6c0.1,6.1,0.2,12.1,0.3,18.2c0.1,2.9,1.1,5,4,6.5c8.1,4.3,16.1,9,24.1,13.6
				c0.3,0.2,0.8,0.1,1.5,0.1c0.2-0.7,0.6-1.3,0.6-1.9c0.3-8.8,0.8-17.6,0.7-26.4c0-1.9-1.3-4.5-2.9-5.7c-5.4-3.9-11-7.4-16.7-10.8
				c-3.1-1.8-3-3.9-1.4-6.4c1.7-2.7,3.4-0.8,5.1,0.3c4.7,2.9,9.4,5.8,15.2,9.4c0-6.9,0-12.6,0-18.3c0-2.8-0.6-5.7,3.7-5.8
				c4.5-0.1,4.1,3,4.1,6c0,5.6,0,11.2,0,17.4c1.2-0.4,2.3-0.6,3.1-1.1c3.9-2.4,7.9-4.9,11.6-7.5c1.9-1.4,3.5-2.7,5.3,0
				c1.7,2.6,1.3,4.4-1.4,6.1c-5.1,3.3-10,6.8-15.2,10.1c-2.7,1.7-3.9,3.7-3.8,7.1c0.2,8.2,0,16.5,0,24.7c0,0.9,0.3,1.9,0.6,3.5
				c2-1.1,3.6-2,5.1-2.9c6.3-3.6,12.4-7.4,18.8-10.8c3.4-1.9,5-4.3,5-8.2c0-5.6,0.5-11.3,0.9-16.9c0.2-3,2.9-5.4,5.8-4.5
				c0.9,0.3,1.8,2.3,1.8,3.5c-0.2,6-0.7,12-1.1,18.6c1.6-0.5,2.7-0.7,3.7-1.2c4.7-2.8,9.5-5.5,14.1-8.5c2.8-1.8,4.1-0.7,5.5,1.5
				c1.7,2.6,0.4,3.9-1.8,5.1c-5.7,3.1-11.3,6.2-18.2,10c6.1,3.1,11.3,5.8,16.5,8.3c3.8,1.8,4.3,3.6,1.1,6.3c-0.9,0.7-3,0.9-4.1,0.4
				c-5.8-2.8-11.5-6.2-17.3-8.9c-1.7-0.8-4.5-1.1-6-0.3c-8,4.5-15.9,9.5-23.7,14.4c-0.7,0.4-1.1,1.2-2.1,2.2c2.7,1.7,5,3.2,7.4,4.6
				c6.2,3.7,12.4,7.4,18.7,10.9c1.3,0.7,3.5,0.8,4.7,0.2c5.5-2.6,10.8-5.5,16.1-8.5c4.6-2.6,6.3-1.8,8.1,3.9
				c-6.1,3.2-12.3,6.4-19.4,10.1c6.6,3.6,12.2,6.8,17.9,9.7c3,1.6,3.5,3.2,1.5,6.1c-1.6,2.2-2.8,2.2-5,0.8
				c-4.7-2.9-9.5-5.5-14.3-8.2c-0.8-0.5-1.8-0.7-3.5-1.3c0.4,6.2,0.8,11.9,1.1,17.5c0.2,3.8-1.4,5.3-4.8,4.2
				c-1.2-0.4-2.5-2.3-2.7-3.6c-0.6-6.5-0.6-13-1.3-19.5c-0.2-2-1.5-4.5-3.1-5.5c-7.3-4.7-14.9-8.9-22.3-13.3
				c-2.7-1.6-3.7-0.7-3.7,2.2c0,8.8-0.2,17.6,0.1,26.4c0,1.7,1.4,3.8,2.8,4.8c5.1,3.7,10.4,7.3,15.9,10.6c2.9,1.8,3.3,3.6,1.5,6.4
				c-2.1,3.3-3.8,1-5.6-0.2c-4.4-2.9-8.8-5.8-14.1-9.3c-0.3,2.1-0.5,3.4-0.5,4.7c0,5.1,0,10.1,0.1,15.2c0.1,2.8-1.3,3.9-3.9,3.9
				c-2.7,0-3.9-1.2-3.9-4c0.1-4.9,0-9.8,0-14.7C424.6,463.9,424.5,462.5,424.4,460z"/>
		</g>
		<g id="XMLID_58_" class="st8">
			<path id="XMLID_59_" class="st9" d="M706.7,438.9c-3.4,2.2-6.1,4-9,5.7c-0.7,0.4-2.2,0.5-2.4,0.2c-0.7-1.1-1.9-2.4,0.1-3.6
				c3.2-2,6.3-4.1,9.6-6.1c1.4-0.9,2-2,2-3.7c-0.1-4.9,0-9.7-0.1-14.6c0-0.6-0.3-1.3-0.4-1.9c-0.7,0.2-1.4,0.3-2,0.6
				c-4.2,2.3-8.3,4.8-12.5,7.1c-1.6,0.9-2.3,2-2.3,3.8c0,3.7-0.3,7.4-0.4,11c0,1.9-1.1,2.2-2.7,2.2c-1.5,0-2-0.8-1.9-2.2
				c0.2-3.4,0.4-6.8,0.6-10.8c-1.2,0.5-1.9,0.7-2.6,1.1c-2.6,1.5-5.2,3.1-7.7,4.7c-1.3,0.8-2.2,0.7-2.9-0.7c-0.6-1.2-1-2.3,0.6-3.1
				c3-1.5,5.9-3.1,8.9-4.7c0.4-0.2,0.7-0.6,1.4-1.2c-2.6-1.4-4.9-2.7-7.2-3.9c-0.7-0.4-1.4-0.7-2-1c-0.9-0.5-2.3-0.9-1.3-2.4
				c0.8-1.2,1.6-2.6,3.6-1.4c3.2,1.9,6.6,3.7,10,5.3c0.9,0.4,2.5,0.4,3.4-0.1c4.3-2.4,8.5-5,12.8-7.6c1.9-1.2,2-1.7,0-2.9
				c-4.1-2.5-8.2-5-12.2-7.5c-1.5-0.9-2.8-1.2-4.4-0.3c-3.1,1.8-6.4,3.3-9.5,5.2c-2.2,1.3-3-0.3-3.8-1.6c-1.1-1.7,0.6-1.9,1.6-2.3
				c3-1.4,6-2.8,9-4.2c0-0.3,0-0.6,0-0.9c-2.2-1.4-4.5-2.7-6.7-4.1c-1.1-0.6-2.4-1-3.2-1.9c-0.6-0.7-0.3-1.7,0.2-2.3
				s1.5-1.2,2.2-0.9c2.7,1.4,5.2,3,7.8,4.5c0.5,0.3,1,0.3,1.9,0.5c0-3.5,0-6.7,0-10c0-1.2,0-2.2,1.6-2.2c1.4,0,2.5,0.4,2.5,2.1
				c0,3.5,0.1,7,0.2,10.6c0,1.7,0.6,2.9,2.3,3.8c4.7,2.5,9.4,5.3,14,7.9c0.2,0.1,0.5,0,0.9,0.1c0.1-0.4,0.3-0.8,0.4-1.1
				c0.2-5.1,0.4-10.2,0.4-15.4c0-1.1-0.8-2.6-1.7-3.3c-3.1-2.3-6.4-4.3-9.7-6.3c-1.8-1.1-1.7-2.3-0.8-3.7c1-1.6,2-0.4,3,0.2
				c2.7,1.7,5.5,3.4,8.8,5.5c0-4,0-7.3,0-10.6c0-1.6-0.3-3.3,2.2-3.4c2.6,0,2.4,1.8,2.4,3.5c0,3.3,0,6.5,0,10.1
				c0.7-0.2,1.3-0.3,1.8-0.7c2.3-1.4,4.6-2.8,6.8-4.4c1.1-0.8,2.1-1.6,3.1,0c1,1.5,0.8,2.6-0.8,3.6c-3,1.9-5.8,4-8.8,5.9
				c-1.6,1-2.2,2.2-2.2,4.1c0.1,4.8,0,9.6,0,14.4c0,0.5,0.2,1.1,0.3,2c1.2-0.7,2.1-1.1,3-1.7c3.6-2.1,7.2-4.3,10.9-6.3
				c2-1.1,2.9-2.5,2.9-4.8c0-3.3,0.3-6.5,0.5-9.8c0.1-1.8,1.7-3.2,3.3-2.6c0.5,0.2,1.1,1.3,1,2.1c-0.1,3.5-0.4,7-0.6,10.8
				c0.9-0.3,1.6-0.4,2.1-0.7c2.8-1.6,5.5-3.2,8.2-4.9c1.6-1.1,2.4-0.4,3.2,0.9c1,1.5,0.2,2.3-1.1,3c-3.3,1.8-6.6,3.6-10.6,5.8
				c3.6,1.8,6.6,3.4,9.6,4.8c2.2,1.1,2.5,2.1,0.7,3.7c-0.5,0.4-1.7,0.5-2.4,0.2c-3.4-1.7-6.7-3.6-10.1-5.2c-1-0.5-2.6-0.6-3.5-0.2
				c-4.7,2.6-9.2,5.5-13.8,8.4c-0.4,0.2-0.7,0.7-1.2,1.3c1.5,1,2.9,1.9,4.3,2.7c3.6,2.1,7.2,4.3,10.9,6.3c0.7,0.4,2,0.5,2.8,0.1
				c3.2-1.5,6.3-3.2,9.4-4.9c2.7-1.5,3.7-1.1,4.7,2.3c-3.5,1.8-7.1,3.7-11.3,5.9c3.9,2.1,7.1,4,10.4,5.7c1.8,0.9,2.1,1.9,0.9,3.6
				c-0.9,1.3-1.7,1.3-2.9,0.5c-2.7-1.7-5.5-3.2-8.3-4.8c-0.5-0.3-1.1-0.4-2-0.8c0.2,3.6,0.4,6.9,0.6,10.2c0.1,2.2-0.8,3.1-2.8,2.4
				c-0.7-0.2-1.5-1.3-1.6-2.1c-0.4-3.8-0.4-7.6-0.8-11.3c-0.1-1.1-0.9-2.6-1.8-3.2c-4.2-2.7-8.6-5.2-13-7.7
				c-1.5-0.9-2.1-0.4-2.1,1.3c0,5.1-0.1,10.3,0.1,15.4c0,1,0.8,2.2,1.6,2.8c3,2.2,6.1,4.2,9.2,6.2c1.7,1,1.9,2.1,0.9,3.7
				c-1.2,1.9-2.2,0.6-3.3-0.1c-2.6-1.7-5.1-3.4-8.2-5.4c-0.1,1.2-0.3,2-0.3,2.7c0,2.9,0,5.9,0.1,8.8c0,1.7-0.7,2.3-2.3,2.3
				s-2.3-0.7-2.2-2.3c0-2.9,0-5.7,0-8.6C706.8,441.1,706.8,440.3,706.7,438.9z"/>
		</g>
	</g>
	<g id="XMLID_42_" class="st0">
		<g id="XMLID_46_" class="st8">
			<path id="XMLID_47_" class="st10" d="M832,438.4c-61.6,88.9-177.5,148.4-308.9,119.3C391,528.5,293,403.2,299,265.8
				c5.6-128.4,93.3-234.4,193.4-263.2c-12.9,22.5-19.4,37.9-26.3,57.8c-8.9,25.7-10,43.9-12.2,66.2
				c-13.5,136.3,98.8,263.7,205.5,297.6c54.3,17.3,108.7,21.7,164.7,14.2C826,438.1,827.9,438.4,832,438.4z"/>
		</g>
		<polygon id="XMLID_45_" class="st11" points="714.5,45.4 727.5,18.9 740.6,45.4 769.7,49.7 748.6,70.2 753.6,99.3 727.5,85.6 
			701.4,99.3 706.4,70.2 685.3,49.6 		"/>
		<polygon id="XMLID_44_" class="st11" points="572.9,132.2 579.9,117.9 586.9,132.2 602.6,134.5 591.3,145.5 593.9,161.1 
			579.9,153.8 565.9,161.1 568.6,145.5 557.2,134.4 		"/>
		<polygon id="XMLID_43_" class="st11" points="662.3,198 669.3,183.8 676.3,198 692,200.3 680.7,211.3 683.3,227 669.3,219.6 
			655.3,227 657.9,211.3 646.6,200.3 		"/>
	</g>
	<g id="XMLID_17_" class="st0">
		<g id="XMLID_39_" class="st8">
			<g id="XMLID_40_">
				<path id="XMLID_41_" class="st10" d="M929.6,372.1c-38.2,55-110,91.9-191.4,73.9c-81.9-18.1-142.5-95.7-138.9-180.8
					c3.4-79.6,57.8-145.2,119.8-163.1c-8,13.9-12,23.5-16.3,35.8c-5.5,15.9-6.2,27.2-7.6,41c-8.4,84.5,61.2,163.4,127.3,184.3
					c33.6,10.7,67.4,13.4,102,8.8C925.8,371.9,927.1,372.1,929.6,372.1z"/>
			</g>
		</g>
		<g id="XMLID_22_" class="st8">
			<path id="XMLID_23_" class="st5" d="M772.6,432.4c1.7,8,4.2,15.8,5.1,23.9c4.4,39-9.4,70.6-41.3,93.3c-16.7,12-36.8,14.3-57,14.7
				c-33.5,0.6-67.1-1.7-100.6,0.8c-16.2,1.2-32.5-1.2-48.8-1.3c-35-0.2-70,2.1-105.1,0.7c-41.6-1.7-83.4,1.2-125.1,1.5
				c-35.6,0.2-76.8-20.3-90.7-62.6c-12.9-39.2,1-86,33.6-110.1c2.3-1.7,5-2.8,7.6-3.9c12-4.9,17.3-13.4,20.1-26.6
				c24.6-115.4,140.4-163.6,239.8-121c20.8,8.9,32.6,16.5,43.5,26.8c9.6,8.6,14.4,22.4,32,18.8c55-11.3,116.6,20.1,132.5,80.7
				c2,7.5,4.3,15.5,11.8,19.1C750.1,396.8,761.8,414.1,772.6,432.4z"/>
		</g>
		<polygon id="XMLID_20_" class="st11" points="634.8,25.6 646.9,0.9 659.1,25.6 686.3,29.6 666.6,48.8 671.2,75.9 646.9,63.1 
			622.6,75.8 627.2,48.7 607.5,29.5 		"/>
		<polygon id="XMLID_19_" class="st11" points="561.1,157.1 567.4,144.5 573.6,157.1 587.6,159.2 577.5,169 579.9,182.9 
			567.4,176.4 554.9,182.9 557.3,169 547.2,159.2 		"/>
		<polygon id="XMLID_18_" class="st11" points="503,104.7 509.3,92 515.5,104.7 529.5,106.7 519.4,116.6 521.8,130.5 509.3,123.9 
			496.8,130.5 499.2,116.5 489.1,106.7 		"/>
	</g>
	<g id="XMLID_6_" class="st0">
		<path id="XMLID_16_" class="st3" d="M568.7,431c-82.1-0.2-148.9-59.1-151-146.8c-2-82.6,63.7-149.6,146.8-150.5
			c89.5-0.9,150.1,65.6,152.3,147.5C719.1,362.5,652.6,433.3,568.7,431z"/>
		<path id="XMLID_15_" class="st3" d="M548.9,38.3c0-6.5-0.4-13.1,0.1-19.6c0.8-10,7.1-15.5,16.9-16.1c9.8-0.6,17.7,4.3,18.7,13.9
			c1.4,14.5,1.5,29.4,0.2,43.9c-0.8,9-7.5,15.9-17.6,15.4s-16.9-6.4-18-16.8C548.4,52.2,549,45.2,548.9,38.3
			C549,38.3,549,38.3,548.9,38.3z"/>
		<path id="XMLID_14_" class="st3" d="M809.7,301.3c-6.9,0-13.9,0.8-20.7-0.2c-9.5-1.4-16.2-7.5-15.8-17.2
			c0.4-10.3,6.9-18,17.6-18.9c12.2-1,24.5-0.8,36.7,0c12.1,0.8,20.8,9.9,20,19.2c-0.9,9.8-9.8,16.9-21.8,17.3
			c-5.3,0.2-10.6,0-15.9,0C809.7,301.4,809.7,301.4,809.7,301.3z"/>
		<path id="XMLID_13_" class="st3" d="M412.1,424.1c3.3,2.9,9.6,6.2,11.8,11.3c2,4.6,1.7,12.9-1.3,16.6c-9.2,11.4-19.4,22.6-31,31.4
			c-4.6,3.5-15.4,3.2-21,0.1c-7.2-4-11.2-14.2-5.3-21.5c10.6-12.8,23.2-24.1,35.2-35.6C402.3,424.9,406.1,425.3,412.1,424.1z"/>
		<path id="XMLID_11_" class="st3" d="M549.4,527.9c0-6.1-0.2-12.3,0-18.4c0.4-9.4,9.2-18.8,17.9-18.2c10.1,0.8,17.3,7.1,18.2,16.9
			c1.2,13.4,0.8,27-0.1,40.5c-0.8,10.9-9.1,17.2-19.2,16.4c-10.3-0.8-16.5-7.6-16.8-18.8C549.3,540.2,549.5,534,549.4,527.9
			L549.4,527.9z"/>
		<path id="XMLID_10_" class="st3" d="M405.9,142.2c-1.3-0.5-5-0.7-7.2-2.8c-11.2-10.7-22.5-21.4-32.8-33c-6-6.8-3.5-14.9,2.1-21.2
			c6.2-7,15.1-9,22-3.2c12.1,10.2,23.8,21.4,33.4,33.8C431.4,125.9,421,141.9,405.9,142.2z"/>
		<path id="XMLID_9_" class="st3" d="M322.5,301.2c-6.2,0-12.3,0.4-18.4-0.1c-9.6-0.8-16.5-5.9-17.6-15.7c-1.1-9.9,4.3-17.9,13.7-19
			c14.9-1.7,30.3-1.9,45.2-0.4c9.8,1,15.6,9.1,14.3,19.7c-1.2,9.8-7.6,15.2-17.6,15.6c-6.5,0.3-13.1,0.1-19.7,0.1
			C322.5,301.3,322.5,301.2,322.5,301.2z"/>
		<path id="XMLID_8_" class="st3" d="M770.6,471.5c-3.5,4.2-7.2,11-12.9,14.3c-3.6,2.1-11.8,0.6-15.4-2.4
			c-10.9-9.2-20.9-19.5-30.6-30c-6.1-6.6-5.8-14.2,0.2-21.1c5.9-6.8,14.2-11.5,21.5-5.3c12.6,10.8,23.5,23.6,34.8,35.8
			C769.5,464.1,769.4,466.6,770.6,471.5z"/>
		<path id="XMLID_7_" class="st3" d="M770.2,94.2c2.5,8.1-2.5,11.9-5.3,15.2c-7.8,9.2-15.9,18.2-24.4,26.8
			c-7.9,7.9-18.2,8.2-25.4,1.5c-8.5-7.8-9.5-17.2-1.5-26.1c9.1-10,18.7-19.7,29.1-28.2c3.6-2.9,11.6-4.2,15.5-2.2
			C763.8,84,767.5,87.2,770.2,94.2z"/>
	</g>
	<g id="XMLID_1_" class="st0">
		<path id="XMLID_5_" class="st1" d="M848.5,209.6c1.7,8,4.2,15.8,5.1,23.9c4.4,39-9.4,70.5-41.2,93.3c-16.7,11.9-36.8,14.3-57,14.7
			c-33.5,0.6-67.1-1.7-100.6,0.8c-16.2,1.2-32.5-1.2-48.8-1.3c-35-0.2-70,2.1-105.1,0.7c-41.6-1.7-83.4,1.2-125.1,1.5
			c-35.6,0.2-76.8-20.3-90.7-62.6c-12.9-39.2,1-86,33.6-110.1c2.3-1.7,5-2.8,7.6-3.9c12-4.9,17.2-13.4,20.1-26.6
			C371,24.6,486.8-23.6,586.1,19c20.8,8.9,32.6,16.5,43.5,26.8c9.6,8.6,14.4,22.4,32,18.8c55-11.3,116.6,20.1,132.5,80.7
			c2,7.5,4.3,15.5,11.8,19.1C826,174,837.7,191.3,848.5,209.6z"/>
		<polygon id="XMLID_4_" class="st3" points="522.9,289.7 490.4,406.7 588.3,406.7 569.6,565.1 671.4,364.7 575.1,364.6 
			599.1,289.7 		"/>
	</g>
</g>
</svg>
