<?xml version="1.0" encoding="utf-8"?>
<!-- Generator: Adobe Illustrator 19.0.0, SVG Export Plug-In . SVG Version: 6.00 Build 0)  -->
<svg version="1.1" id="Calque_1" xmlns="http://www.w3.org/2000/svg" xmlns:xlink="http://www.w3.org/1999/xlink" x="0px" y="0px"
	 viewBox="0 0 1133.9 1133.9" style="enable-background:new 0 0 1133.9 1133.9;" xml:space="preserve">
<style type="text/css">
	.st0{fill:#FFFFFF;}
</style>
<g id="XMLID_2_">
	<path id="XMLID_3_" class="st0" d="M1107.4,1127.6c-21.7,0-43.3,0-65.5,0c0-292.7,0-584.7,0-876.8c-0.8-0.3-1.5-0.5-2.3-0.8
		c-1.6,4.2-3.3,8.3-4.8,12.5c-29.8,83.8-59.6,167.6-89.7,251.2c-1.9,5.1-6.2,10.7-10.9,13.3c-227.3,124.7-454.8,249-682,373.8
		c-9.8,5.4-18.2,5.6-28.1,2.4c-50.8-16.1-89.9-48-121.2-90.1c-42.3-56.8-63.8-122-76.4-190.7c-0.5-2.8,1.2-6.3,2.6-9.1
		c1-1.9,3.1-3.3,4.7-4.9C224.9,417.2,415.9,225.9,607,34.7c2.7-2.7,6-5,8-8.2c13-20.7,31.8-22.6,53.7-18.3
		c109,21.6,218.1,42.2,327,64.4c32.3,6.6,64.3,13,97.5,10.9c4.5-0.3,9,0,14.2,0C1107.4,432.1,1107.4,779.5,1107.4,1127.6z
		 M496.8,179.3c-3.7,3.6-6.5,6.1-9.2,8.7c-31.6,31.6-63.3,63.3-94.9,94.9c-28.9,28.9-28.9,28.9-23.2,69.5c0.1,0.4,0.1,0.8,0.2,1.1
		c22.8,141.8,97.2,249.1,217.2,326.2c6.6,4.2,11.6,4.6,18.6,0.6c48.4-26.9,97-53.4,145.6-80c2.8-1.6,5.5-3.5,8.5-5.5
		C620.3,488.9,521.7,358.4,496.8,179.3z M925.9,465.2c-0.8-43.6-8.6-85.9-23-126.9c-34.1-97.2-96.1-174-176.2-236.8
		c-26.4-20.7-55-38.5-82.8-57.4c-2.7-1.8-7.9-3.6-9.7-2.3c-2.3,1.7-2.6,6.5-3.4,10c-0.4,1.8,0,3.8,0.2,5.7
		c3.2,55.8,16.2,109.5,37.2,161.1c48.4,119.2,129.1,212.7,231.5,288.6c3.6,2.7,9.4,4.6,13.7,3.9c7.4-1.3,10.9-7.1,11-15.1
		C924.5,485.8,925.3,475.5,925.9,465.2z M252.3,424.7c-36,35.7-70.8,70-105.2,104.7c-2.2,2.2-2.8,7.9-1.7,11.2
		c22.6,68,50.3,133.7,91.2,193c23.8,34.6,51.3,65.6,90.6,83.8c10.4,4.8,19.7,6.1,30-1.1c9-6.3,19.3-10.8,29-16.1
		c22.2-12.2,44.4-24.4,67.4-37C344.4,674.9,269.4,567.6,252.3,424.7z M678.9,31.4c-0.6,1.5-1.2,3.1-1.8,4.6
		C821,131.2,926,253,948.5,433.8c2-5.5,3.1-8.3,4.1-11.1c27.2-76.2,53.6-152.7,82-228.5c10.9-29,5.4-57.9,7.7-88.6
		C920.2,80.7,799.5,56,678.9,31.4z"/>
</g>
</svg>
