<?xml version="1.0" encoding="utf-8"?>
<!-- Generator: Adobe Illustrator 19.0.0, SVG Export Plug-In . SVG Version: 6.00 Build 0)  -->
<svg version="1.1" id="Capa_1" xmlns="http://www.w3.org/2000/svg" xmlns:xlink="http://www.w3.org/1999/xlink" x="0px" y="0px"
	 viewBox="-169 170.4 512 512" style="enable-background:new -169 170.4 512 512;" xml:space="preserve">
<style type="text/css">
	.st0{fill:#242424;}
</style>
<g>
	<path class="st0" d="M50,171.4c25.3,0,50.7,0,76,0c0.2,0.2,0.4,0.6,0.7,0.7c18.2,6.2,25.3,16.1,25.3,35.3c0,50,0,99.9,0,149.9
		c0,1.9,0,3.9,0,6.1c2.6,0,4.6,0,6.5,0c50.8,0,101.6,0,152.4,0c16,0,27.6,8.9,32.1,24.2c0.3,0.9,0.7,1.8,1,2.8c0,24.7,0,49.3,0,74
		c-4.2,17.6-17.7,27.6-39.1,27.2c-48.9-0.8-97.9-0.2-146.9-0.2c-1.9,0-3.8,0-6,0c0,2.7,0,4.7,0,6.7c0,50.6,0,101.3,0,151.9
		c0,14.2-6.5,24.4-19.2,30.7c-2.2,1.1-4.5,1.9-6.8,2.8c-25.3,0-50.7,0-76,0c-0.2-0.2-0.4-0.6-0.7-0.7C31.2,676.6,24,666.5,24,647.4
		c0-50,0-99.9,0-149.9c0-1.9,0-3.9,0-6.1c-2.6,0-4.6,0-6.5,0c-50.6,0-101.3,0-151.9,0c-16.2,0-28-8.9-32.6-24.2
		c-0.3-0.9-0.7-1.8-1-2.8c0-25,0-50,0-75c6.2-19.9,20.3-26.5,40.4-26.2c48.5,0.7,97,0.2,145.5,0.2c1.9,0,3.9,0,6.1,0
		c0-2.6,0-4.6,0-6.6c0-50.8,0-101.6,0-152.5c0-15.2,8.7-27,22.9-31.7C48,172.3,49,171.8,50,171.4z"/>
</g>
</svg>
