<?xml version="1.0" encoding="utf-8"?>
<!-- Generator: Adobe Illustrator 16.0.0, SVG Export Plug-In . SVG Version: 6.00 Build 0)  -->
<!DOCTYPE svg PUBLIC "-//W3C//DTD SVG 1.1//EN" "http://www.w3.org/Graphics/SVG/1.1/DTD/svg11.dtd">
<svg version="1.1" id="Calque_1" xmlns="http://www.w3.org/2000/svg" xmlns:xlink="http://www.w3.org/1999/xlink" x="0px" y="0px"
	 width="1050px" height="512px" viewBox="0 0 1050 512" enable-background="new 0 0 1050 512" xml:space="preserve">
<g>
	<g>
		<g>
			<path fill="#FFFFFF" d="M215.898,275.88c0.53,0,1.06,0,1.696,0c0.212,0,0.424,0,0.636,0c0.318,0,0.742,0,1.061,0
				c31.065-0.53,56.194-11.451,74.748-32.339c40.82-46.015,34.035-124.898,33.293-132.426
				c-2.651-56.513-29.369-83.549-51.423-96.166C259.475,5.513,240.284,0.424,218.867,0h-0.742c-0.106,0-0.318,0-0.424,0h-0.636
				c-11.769,0-34.883,1.908-57.042,14.525c-22.265,12.617-49.408,39.653-52.059,96.59c-0.742,7.527-7.528,86.411,33.292,132.426
				C159.704,264.429,184.833,275.35,215.898,275.88z M136.272,113.766c0-0.318,0.106-0.637,0.106-0.849
				c3.499-76.021,57.466-84.185,80.58-84.185h0.424c0.212,0,0.53,0,0.848,0c28.627,0.637,77.293,12.299,80.58,84.185
				c0,0.318,0,0.637,0.106,0.849c0.105,0.742,7.527,72.84-26.188,110.797c-13.359,15.056-31.172,22.478-54.604,22.689
				c-0.212,0-0.318,0-0.53,0l0,0c-0.212,0-0.318,0-0.53,0c-23.326-0.212-41.244-7.634-54.498-22.689
				C128.957,186.817,136.167,114.401,136.272,113.766z"/>
			<path fill="#FFFFFF" d="M435.479,406.716c0-0.106,0-0.212,0-0.318c0-0.848-0.106-1.696-0.106-2.65
				c-0.636-20.993-2.014-70.083-48.029-85.775c-0.318-0.105-0.742-0.212-1.061-0.318c-47.817-12.192-87.577-39.76-88.002-40.077
				c-6.468-4.56-15.374-2.969-19.933,3.499c-4.56,6.467-2.969,15.373,3.499,19.933c1.802,1.272,44.001,30.642,96.802,44.213
				c24.704,8.8,27.461,35.2,28.203,59.374c0,0.955,0,1.803,0.105,2.651c0.106,9.542-0.529,24.279-2.227,32.762
				c-17.176,9.755-84.503,43.471-186.924,43.471c-101.997,0-169.748-33.822-187.03-43.577c-1.696-8.481-2.438-23.22-2.227-32.762
				c0-0.848,0.106-1.696,0.106-2.65c0.742-24.174,3.499-50.574,28.203-59.375c52.801-13.571,95-43.046,96.802-44.213
				c6.468-4.559,8.058-13.465,3.499-19.933s-13.465-8.058-19.933-3.499c-0.424,0.318-39.972,27.885-88.001,40.078
				c-0.424,0.105-0.742,0.212-1.061,0.318c-46.015,15.798-47.394,64.888-48.03,85.774c0,0.954,0,1.803-0.106,2.65
				c0,0.106,0,0.213,0,0.318c-0.106,5.514-0.212,33.822,5.407,48.03c1.061,2.757,2.969,5.089,5.514,6.68
				c3.181,2.12,79.414,50.68,206.963,50.68s203.783-48.665,206.963-50.68c2.438-1.591,4.453-3.923,5.514-6.68
				C435.69,440.538,435.585,412.229,435.479,406.716z"/>
		</g>
	</g>
	<g>
	</g>
	<g>
	</g>
	<g>
	</g>
	<g>
	</g>
	<g>
	</g>
	<g>
	</g>
	<g>
	</g>
	<g>
	</g>
	<g>
	</g>
	<g>
	</g>
	<g>
	</g>
	<g>
	</g>
	<g>
	</g>
	<g>
	</g>
	<g>
	</g>
</g>
<g>
	<g>
		<g>
			<path fill="#242424" d="M830.391,275.88c0.529,0,1.06,0,1.695,0c0.213,0,0.425,0,0.637,0c0.318,0,0.742,0,1.061,0
				c31.065-0.53,56.194-11.451,74.748-32.339c40.82-46.015,34.035-124.898,33.293-132.426
				c-2.651-56.513-29.369-83.549-51.423-96.166C873.967,5.513,854.776,0.424,833.359,0h-0.742c-0.106,0-0.318,0-0.424,0h-0.637
				c-11.77,0-34.883,1.908-57.043,14.525c-22.265,12.617-49.407,39.653-52.059,96.59c-0.742,7.527-7.527,86.411,33.293,132.426
				C774.196,264.429,799.324,275.35,830.391,275.88z M750.765,113.766c0-0.318,0.106-0.637,0.106-0.849
				c3.498-76.021,57.466-84.185,80.58-84.185h0.424c0.211,0,0.529,0,0.848,0c28.627,0.637,77.293,12.299,80.58,84.185
				c0,0.318,0,0.637,0.106,0.849c0.105,0.742,7.527,72.84-26.188,110.797c-13.359,15.056-31.172,22.478-54.604,22.689
				c-0.213,0-0.318,0-0.531,0l0,0c-0.211,0-0.317,0-0.529,0c-23.326-0.212-41.244-7.634-54.498-22.689
				C743.449,186.817,750.658,114.401,750.765,113.766z"/>
			<path fill="#242424" d="M1049.971,406.716c0-0.106,0-0.212,0-0.318c0-0.848-0.106-1.696-0.106-2.65
				c-0.636-20.993-2.014-70.083-48.029-85.775c-0.318-0.105-0.742-0.212-1.061-0.318c-47.817-12.192-87.577-39.76-88.002-40.077
				c-6.468-4.56-15.374-2.969-19.933,3.499c-4.56,6.467-2.969,15.373,3.499,19.933c1.802,1.272,44.001,30.642,96.802,44.213
				c24.704,8.8,27.461,35.2,28.203,59.374c0,0.955,0,1.803,0.105,2.651c0.106,9.542-0.529,24.279-2.227,32.762
				c-17.176,9.755-84.503,43.471-186.924,43.471c-101.997,0-169.748-33.822-187.03-43.577c-1.696-8.481-2.438-23.22-2.227-32.762
				c0-0.848,0.106-1.696,0.106-2.65c0.742-24.174,3.498-50.574,28.203-59.375c52.801-13.571,94.999-43.046,96.801-44.213
				c6.469-4.559,8.059-13.465,3.5-19.933c-4.56-6.468-13.466-8.058-19.934-3.499c-0.424,0.318-39.972,27.885-88.002,40.078
				c-0.424,0.105-0.742,0.212-1.061,0.318c-46.015,15.798-47.393,64.888-48.029,85.774c0,0.954,0,1.803-0.105,2.65
				c0,0.106,0,0.213,0,0.318c-0.106,5.514-0.213,33.822,5.406,48.03c1.061,2.757,2.969,5.089,5.514,6.68
				c3.182,2.12,79.414,50.68,206.963,50.68c127.55,0,203.783-48.665,206.964-50.68c2.438-1.591,4.453-3.923,5.514-6.68
				C1050.183,440.538,1050.077,412.229,1049.971,406.716z"/>
		</g>
	</g>
	<g>
	</g>
	<g>
	</g>
	<g>
	</g>
	<g>
	</g>
	<g>
	</g>
	<g>
	</g>
	<g>
	</g>
	<g>
	</g>
	<g>
	</g>
	<g>
	</g>
	<g>
	</g>
	<g>
	</g>
	<g>
	</g>
	<g>
	</g>
	<g>
	</g>
</g>
</svg>
