<?xml version="1.0" encoding="utf-8"?>
<!-- Generator: Adobe Illustrator 16.0.0, SVG Export Plug-In . SVG Version: 6.00 Build 0)  -->
<!DOCTYPE svg PUBLIC "-//W3C//DTD SVG 1.1//EN" "http://www.w3.org/Graphics/SVG/1.1/DTD/svg11.dtd">
<svg version="1.1" id="Calque_1" xmlns="http://www.w3.org/2000/svg" xmlns:xlink="http://www.w3.org/1999/xlink" x="0px" y="0px"
	 width="1050px" height="512px" viewBox="0 0 1050 512" enable-background="new 0 0 1050 512" xml:space="preserve">
<g>
	<g>
		<path fill="#FFFFFF" d="M495.536,94h-310.44c-10.183,0-18.464,8.282-18.464,18.465v80.92H20.464
			C10.282,193.385,2,201.667,2,211.847v188.279c0,10.188,8.282,18.469,18.464,18.469h310.438c10.188,0,18.463-8.28,18.463-18.469
			v-80.92h146.172c10.18,0,18.464-8.277,18.464-18.462V112.465C513.991,102.282,505.712,94,495.536,94z M331.258,400.126
			c0,0.194-0.156,0.359-0.356,0.359l-310.787-0.359l0.357-188.634l310.787,0.354V400.126z M495.883,300.744
			c0,0.194-0.156,0.354-0.357,0.354l-146.162-0.165v-89.087c0-10.18-8.287-18.462-18.469-18.462H184.939l0.152-81.276l310.788,0.356
			v188.279H495.883z"/>
	</g>
	<g>
	</g>
	<g>
	</g>
	<g>
	</g>
	<g>
	</g>
	<g>
	</g>
	<g>
	</g>
	<g>
	</g>
	<g>
	</g>
	<g>
	</g>
	<g>
	</g>
	<g>
	</g>
	<g>
	</g>
	<g>
	</g>
	<g>
	</g>
	<g>
	</g>
</g>
<g>
	<g>
		<path fill="#242424" d="M1030.535,94h-310.44c-10.184,0-18.464,8.282-18.464,18.465v80.92H555.464
			c-10.184,0-18.465,8.282-18.465,18.462v188.279c0,10.188,8.281,18.469,18.465,18.469h310.438c10.188,0,18.463-8.28,18.463-18.469
			v-80.92h146.172c10.18,0,18.464-8.277,18.464-18.462V112.465C1048.99,102.282,1040.711,94,1030.535,94z M866.257,400.126
			c0,0.194-0.156,0.359-0.356,0.359l-310.787-0.359l0.356-188.634l310.787,0.354V400.126z M1030.882,300.744
			c0,0.194-0.156,0.354-0.357,0.354l-146.162-0.165v-89.087c0-10.18-8.287-18.462-18.469-18.462H719.938l0.152-81.276l310.787,0.356
			v188.279H1030.882z"/>
	</g>
	<g>
	</g>
	<g>
	</g>
	<g>
	</g>
	<g>
	</g>
	<g>
	</g>
	<g>
	</g>
	<g>
	</g>
	<g>
	</g>
	<g>
	</g>
	<g>
	</g>
	<g>
	</g>
	<g>
	</g>
	<g>
	</g>
	<g>
	</g>
	<g>
	</g>
</g>
</svg>
