<?xml version="1.0" encoding="utf-8"?>
<!-- Generator: Adobe Illustrator 19.0.0, SVG Export Plug-In . SVG Version: 6.00 Build 0)  -->
<svg version="1.1" id="Capa_1" xmlns="http://www.w3.org/2000/svg" xmlns:xlink="http://www.w3.org/1999/xlink" x="0px" y="0px"
	 viewBox="-169 170.4 512 512" style="enable-background:new -169 170.4 512 512;" xml:space="preserve">
<style type="text/css">
	.st0{fill:#FFFFFF;}
</style>
<g>
	<path class="st0" d="M173.7,426.4L325,275.1c23.9-23.9,23.9-62.8,0-86.7c-23.9-23.9-62.8-23.9-86.7,0L87,339.7L-64.3,188.4
		c-23.9-23.9-62.8-23.9-86.7,0c-23.9,23.9-23.9,62.8,0,86.7L0.3,426.4L-151,577.7c-23.9,23.9-23.9,62.8,0,86.7
		c12,12,27.7,18,43.3,18c15.7,0,31.4-6,43.3-18L87,513.1l151.3,151.3c12,12,27.7,18,43.3,18s31.4-6,43.3-18
		c23.9-23.9,23.9-62.8,0-86.7L173.7,426.4z"/>
</g>
</svg>
