<?xml version="1.0" encoding="utf-8"?>
<!-- Generator: Adobe Illustrator 16.0.0, SVG Export Plug-In . SVG Version: 6.00 Build 0)  -->
<!DOCTYPE svg PUBLIC "-//W3C//DTD SVG 1.1//EN" "http://www.w3.org/Graphics/SVG/1.1/DTD/svg11.dtd">
<svg version="1.1" id="Capa_1" xmlns="http://www.w3.org/2000/svg" xmlns:xlink="http://www.w3.org/1999/xlink" x="0px" y="0px"
	 width="512px" height="512px" viewBox="0 0 512 512" enable-background="new 0 0 512 512" xml:space="preserve">
<g>
	<path fill="#D80027" d="M342.69,256l151.347-151.334c23.946-23.947,23.946-62.768,0-86.703c-23.923-23.935-62.769-23.935-86.691,0
		L256,169.322L104.654,17.963c-23.923-23.935-62.768-23.935-86.69,0c-23.947,23.947-23.947,62.768,0,86.703L169.297,256
		L17.963,407.334c-23.947,23.946-23.947,62.768,0,86.702c11.955,11.979,27.663,17.951,43.345,17.951
		c15.67,0,31.39-5.972,43.345-17.951L256,342.702l151.346,151.347C419.313,506.029,435.009,512,450.691,512
		s31.39-5.972,43.346-17.951c23.946-23.947,23.946-62.769,0-86.703L342.69,256z"/>
</g>
</svg>
