<?xml version="1.0" encoding="utf-8"?>
<!-- Generator: Adobe Illustrator 16.0.0, SVG Export Plug-In . SVG Version: 6.00 Build 0)  -->
<!DOCTYPE svg PUBLIC "-//W3C//DTD SVG 1.1//EN" "http://www.w3.org/Graphics/SVG/1.1/DTD/svg11.dtd">
<svg version="1.1" id="Calque_1" xmlns="http://www.w3.org/2000/svg" xmlns:xlink="http://www.w3.org/1999/xlink" x="0px" y="0px"
	 width="1050px" height="512px" viewBox="0 0 1050 512" enable-background="new 0 0 1050 512" xml:space="preserve">
<g>
	<g>
		<path fill="#FFFFFF" d="M307.199,187.732H93.867c-4.71,0-8.534,3.814-8.534,8.534c0,4.719,3.823,8.533,8.534,8.533h213.333
			c4.711,0,8.534-3.814,8.534-8.533C315.733,191.547,311.91,187.732,307.199,187.732z"/>
		<path fill="#FFFFFF" d="M93.867,136.533H179.2c4.71,0,8.534-3.814,8.534-8.533c0-4.72-3.823-8.534-8.534-8.534H93.867
			c-4.71,0-8.534,3.814-8.534,8.534C85.333,132.719,89.156,136.533,93.867,136.533z"/>
		<path fill="#FFFFFF" d="M307.199,256H93.867c-4.71,0-8.534,3.813-8.534,8.533c0,4.719,3.823,8.533,8.534,8.533h213.333
			c4.711,0,8.534-3.814,8.534-8.533C315.733,259.813,311.91,256,307.199,256z"/>
		<path fill="#FFFFFF" d="M307.199,324.267H93.867c-4.71,0-8.534,3.814-8.534,8.533s3.823,8.533,8.534,8.533h213.333
			c4.711,0,8.534-3.814,8.534-8.533S311.91,324.267,307.199,324.267z"/>
		<path fill="#FFFFFF" d="M307.199,392.533H93.867c-4.71,0-8.534,3.814-8.534,8.533s3.823,8.533,8.534,8.533h213.333
			c4.711,0,8.534-3.814,8.534-8.533S311.91,392.533,307.199,392.533z"/>
		<path fill="#FFFFFF" d="M276.6,0H0v512h401.066V124.467L276.6,0z M281.6,29.132l90.334,90.334H281.6V29.132z M17.066,494.933
			V17.066h247.467v119.467H384v358.399H17.066z"/>
	</g>
	<g>
	</g>
	<g>
	</g>
	<g>
	</g>
	<g>
	</g>
	<g>
	</g>
	<g>
	</g>
	<g>
	</g>
	<g>
	</g>
	<g>
	</g>
	<g>
	</g>
	<g>
	</g>
	<g>
	</g>
	<g>
	</g>
	<g>
	</g>
	<g>
	</g>
</g>
<g>
	<g>
		<path fill="#242424" d="M955.133,187.732H741.801c-4.711,0-8.534,3.814-8.534,8.534c0,4.719,3.823,8.533,8.534,8.533h213.332
			c4.711,0,8.534-3.814,8.534-8.533C963.667,191.547,959.844,187.732,955.133,187.732z"/>
		<path fill="#242424" d="M741.801,136.533h85.332c4.711,0,8.534-3.814,8.534-8.533c0-4.72-3.823-8.534-8.534-8.534h-85.332
			c-4.711,0-8.534,3.814-8.534,8.534C733.267,132.719,737.09,136.533,741.801,136.533z"/>
		<path fill="#242424" d="M955.133,256H741.801c-4.711,0-8.534,3.813-8.534,8.533c0,4.719,3.823,8.533,8.534,8.533h213.332
			c4.711,0,8.534-3.814,8.534-8.533C963.667,259.813,959.844,256,955.133,256z"/>
		<path fill="#242424" d="M955.133,324.267H741.801c-4.711,0-8.534,3.814-8.534,8.533s3.823,8.533,8.534,8.533h213.332
			c4.711,0,8.534-3.814,8.534-8.533S959.844,324.267,955.133,324.267z"/>
		<path fill="#242424" d="M955.133,392.533H741.801c-4.711,0-8.534,3.814-8.534,8.533s3.823,8.533,8.534,8.533h213.332
			c4.711,0,8.534-3.814,8.534-8.533S959.844,392.533,955.133,392.533z"/>
		<path fill="#242424" d="M924.533,0h-276.6v512H1049V124.467L924.533,0z M929.533,29.132l90.334,90.334h-90.334V29.132z
			 M665,494.933V17.066h247.467v119.467h119.467v358.399H665z"/>
	</g>
	<g>
	</g>
	<g>
	</g>
	<g>
	</g>
	<g>
	</g>
	<g>
	</g>
	<g>
	</g>
	<g>
	</g>
	<g>
	</g>
	<g>
	</g>
	<g>
	</g>
	<g>
	</g>
	<g>
	</g>
	<g>
	</g>
	<g>
	</g>
	<g>
	</g>
</g>
</svg>
