<?xml version="1.0" encoding="utf-8"?>
<!-- Generator: Adobe Illustrator 16.0.0, SVG Export Plug-In . SVG Version: 6.00 Build 0)  -->
<!DOCTYPE svg PUBLIC "-//W3C//DTD SVG 1.1//EN" "http://www.w3.org/Graphics/SVG/1.1/DTD/svg11.dtd">
<svg version="1.1" id="Calque_1" xmlns="http://www.w3.org/2000/svg" xmlns:xlink="http://www.w3.org/1999/xlink" x="0px" y="0px"
	 width="1050px" height="512px" viewBox="0 0 1050 512" enable-background="new 0 0 1050 512" xml:space="preserve">
<g>
	<g>
		<path fill="#FFFFFF" d="M257.002,318.983c-15.401,0-30.806-0.179-46.204,0.063c-10.409,0.162-17.687-7.492-17.664-17.688
			c0.071-30.435-0.139-60.869,0.109-91.302c0.095-11.686,6.346-17.955,18.095-18.046c30.555-0.239,61.113-0.088,91.67-0.077
			c9.806,0.004,17.246,7.089,17.228,16.944c-0.063,31.296-0.169,62.595,0.074,93.89c0.063,8.359-7.946,16.494-16.365,16.313
			C288.304,318.739,272.651,318.982,257.002,318.983z M257.079,204.379c-13.791,0-27.583,0.129-41.372-0.059
			c-5.925-0.081-10.199,4.178-10.165,10.235c0.155,27.334,0.196,54.673-0.029,82.006c-0.052,6.309,4.643,10.872,10.878,10.815
			c26.963-0.241,53.935-0.3,80.896,0.053c5.854,0.076,11.461-5.286,11.377-11.458c-0.367-26.838-0.315-53.686-0.047-80.526
			c0.066-6.732-4.563-11.339-11.275-11.169C283.928,204.617,270.5,204.377,257.079,204.379z"/>
		<path fill="#FFFFFF" d="M446.971,318.983c-15.278,0.001-30.57-0.367-45.833,0.136c-9.408,0.311-17.465-7.97-17.354-17.262
			c0.371-30.802,0.25-61.608,0.079-92.412c-0.058-10.268,7.483-17.58,17.811-17.549c30.313,0.092,60.623-0.072,90.935,0.086
			c11.39,0.061,18.158,6.59,18.196,18.009c0.1,30.558,0.019,61.116,0.042,91.675c0.008,10.247-7.265,17.451-17.301,17.355
			C478.023,318.874,462.497,318.983,446.971,318.983z M447.083,204.377c-13.422,0-26.85,0.249-40.262-0.104
			c-6.69-0.177-11.365,4.429-11.297,11.151c0.267,26.716,0.336,53.442-0.048,80.157c-0.099,6.763,5.44,11.938,11.725,11.853
			c26.592-0.37,53.192-0.341,79.787-0.038c7.332,0.083,11.731-4.539,11.657-11.55c-0.283-26.717-0.267-53.439-0.017-80.158
			c0.068-7.376-4.05-11.551-11.284-11.394C473.93,204.585,460.504,204.377,447.083,204.377z"/>
		<path fill="#FFFFFF" d="M257.257,382.694c15.279,0,30.57,0.354,45.833-0.131c9.296-0.299,17.386,7.942,17.269,17.348
			c-0.386,30.677-0.261,61.361-0.08,92.042c0.062,10.365-7.188,17.719-17.758,17.687c-30.313-0.09-60.625-0.01-90.937-0.043
			c-11.757-0.012-18.319-6.877-18.375-18.224c-0.149-30.312,0.008-60.624-0.083-90.935c-0.03-10.321,7.28-17.946,17.555-17.803
			C226.205,382.857,241.732,382.694,257.257,382.694z M308.505,445.849c0-13.546,0.02-27.091-0.008-40.637
			c-0.013-6.525-4.155-10.786-10.597-10.795c-27.338-0.032-54.675,0.094-82.012-0.103c-5.554-0.04-10.393,4.532-10.357,10.194
			c0.175,27.583,0.154,55.168,0.025,82.751c-0.028,6.027,4.256,10.139,10.283,10.104c27.336-0.151,54.674-0.189,82.01,0.027
			c6.169,0.051,10.923-4.524,10.762-10.91C308.268,472.945,308.505,459.394,308.505,445.849z"/>
		<path fill="#FFFFFF" d="M383.925,445.646c0-15.278,0.354-30.569-0.132-45.832c-0.297-9.29,7.943-17.383,17.354-17.265
			c30.676,0.386,61.36,0.261,92.04,0.08c10.36-0.062,17.716,7.188,17.684,17.763c-0.09,30.313-0.021,60.623-0.038,90.936
			c-0.007,11.294-7.027,18.271-18.381,18.276c-30.188,0.015-60.377-0.082-90.565,0.051c-10.827,0.049-18.197-7.351-18.025-17.805
			C384.113,476.453,383.925,461.047,383.925,445.646z M447.465,497.3c13.423,0,26.851-0.199,40.266,0.084
			c6.732,0.143,10.924-4.12,10.878-10.658c-0.187-27.214-0.207-54.429,0.021-81.641c0.052-6.176-4.552-10.836-10.915-10.78
			c-27.089,0.232-54.18,0.085-81.271,0.106c-6.668,0.006-10.798,4.208-10.803,10.967c-0.018,26.967,0.14,53.937-0.109,80.9
			c-0.063,6.76,4.563,11.305,11.302,11.127C420.369,497.049,433.92,497.3,447.465,497.3z"/>
		<path fill="#FFFFFF" d="M66.279,318.983c-15.397,0-30.804-0.334-46.187,0.127C10.968,319.383,2.895,311.15,3,301.98
			c0.355-30.791,0.259-61.587,0.066-92.381C3,199.155,10.565,191.886,20.72,191.907c30.548,0.063,61.096-0.038,91.644,0.055
			c11.327,0.035,17.656,6.91,17.741,17.751c0.24,30.669,0.069,61.341,0.093,92.012c0.007,9.564-7.298,17.621-17.36,17.364
			C97.328,318.691,81.799,318.983,66.279,318.983z M66.375,307.274c13.67,0,27.348-0.277,41.007,0.131
			c5.75,0.172,11.247-5.538,11.2-11.212c-0.226-26.97-0.129-53.941-0.08-80.912c0.012-6.146-4.272-11.013-10.863-10.971
			c-27.463,0.17-54.928,0.176-82.39-0.017c-5.886-0.041-10.54,4.653-10.496,10.436c0.207,27.215,0.078,54.434,0.101,81.65
			c0.006,6.747,4.151,10.875,10.879,10.887C39.278,307.292,52.826,307.275,66.375,307.274z"/>
		<path fill="#FFFFFF" d="M320.213,65.276c0.001,15.396-0.31,30.803,0.11,46.188c0.278,10.158-7.749,17.535-17.587,17.516
			c-30.549-0.062-61.099,0.107-91.646-0.093c-10.931-0.071-17.903-6.504-17.918-17.978c-0.039-30.548-0.001-61.097-0.02-91.646
			c-0.006-9.955,7.158-17.43,17.161-17.396c31.164,0.102,62.332,0.202,93.492-0.07c8.547-0.075,16.718,7.961,16.514,16.549
			C319.947,33.982,320.212,49.632,320.213,65.276z M256.68,13.613c-13.547,0-27.099,0.199-40.641-0.094
			c-5.771-0.125-10.56,4.556-10.517,10.426c0.197,27.464,0.201,54.93,0.008,82.393c-0.046,6.57,4.778,10.969,11.274,10.947
			c26.725-0.087,53.453-0.193,80.176,0.081c6.242,0.063,11.738-5.527,11.668-11.496c-0.325-27.092-0.134-54.189-0.149-81.285
			c-0.004-6.89-4.151-10.955-11.176-10.967C283.776,13.596,270.229,13.612,256.68,13.613z"/>
		<path fill="#FFFFFF" d="M66.684,382.696c15.398-0.002,30.804,0.281,46.193-0.103c10.008-0.25,17.333,7.742,17.324,17.39
			c-0.028,30.674,0.154,61.349-0.101,92.021c-0.088,10.516-6.454,17.562-17.521,17.582c-30.673,0.063-61.348-0.005-92.021,0.036
			c-10.346,0.014-17.489-7.273-17.458-17.194c0.098-31.043,0.219-62.088-0.081-93.128c-0.085-8.747,7.964-16.943,16.732-16.719
			C35.386,382.984,51.039,382.696,66.684,382.696z M66.176,497.3c13.548,0,27.103-0.252,40.642,0.103
			c7.196,0.188,11.736-4.429,11.706-11.634c-0.111-26.357-0.252-52.72,0.088-79.071c0.097-7.465-5.577-12.532-12.247-12.442
			c-26.722,0.359-53.455,0.354-80.177-0.006c-6.102-0.082-11.578,5.43-11.5,11.341c0.354,26.846,0.312,53.7,0.047,80.547
			c-0.068,6.938,4.599,11.433,11.168,11.267C39.32,497.063,52.751,497.3,66.176,497.3z"/>
		<path fill="#FFFFFF" d="M383.926,65.433c-0.001-15.521,0.333-31.053-0.128-46.562c-0.271-9.135,7.962-17.207,17.122-17.103
			c30.794,0.354,61.594,0.234,92.391,0.078c10.249-0.052,17.561,7.147,17.544,17.5c-0.047,30.675,0.028,61.349-0.041,92.021
			c-0.024,11.056-7.037,17.412-17.596,17.499c-30.795,0.252-61.594,0.115-92.391,0.073c-9.274-0.013-17.171-7.203-16.981-16.945
			C384.149,96.481,383.926,80.955,383.926,65.433z M447.446,13.613c-13.794,0-27.588-0.029-41.381,0.014
			c-6.071,0.02-10.406,4.251-10.414,10.234c-0.036,27.465,0.137,54.931-0.14,82.393c-0.058,5.698,5.583,11.15,11.295,11.101
			c26.848-0.234,53.697-0.149,80.546-0.073c6.628,0.019,11.336-4.456,11.275-11.325c-0.238-27.216-0.229-54.437,0-81.653
			c0.053-6.183-4.545-10.94-10.912-10.788C474.3,13.838,460.871,13.613,447.446,13.613z"/>
		<path fill="#FFFFFF" d="M3.135,65.079c0-15.393,0.341-30.796-0.128-46.174C2.728,9.729,10.979,1.67,20.087,1.772
			c31.028,0.346,62.064,0.29,93.094,0.041c9.715-0.078,17.022,7.75,17.016,17.305c-0.019,30.785,0.044,61.571-0.036,92.355
			c-0.027,10.416-7.017,17.429-17.411,17.456c-30.785,0.081-61.571,0.016-92.356,0.038c-9.619,0.007-17.609-7.305-17.36-17.343
			C3.419,96.118,3.135,80.595,3.135,65.079z M14.845,65.17c0,13.677,0.269,27.362-0.126,41.028
			c-0.167,5.774,5.592,11.201,11.253,11.152c26.859-0.228,53.724-0.204,80.583-0.027c6.71,0.044,12.042-5.32,11.998-11.973
			c-0.178-26.736-0.232-53.478,0.043-80.213c0.064-6.257-5.501-11.727-11.531-11.657c-27.104,0.308-54.214,0.122-81.322,0.141
			c-6.72,0.005-10.88,4.17-10.893,10.887C14.825,38.063,14.843,51.616,14.845,65.17z"/>
	</g>
</g>
<g>
	<g>
		<path fill="#242424" d="M791.909,319.272c-15.401,0-30.806-0.179-46.204,0.063c-10.409,0.162-17.688-7.492-17.664-17.688
			c0.071-30.435-0.139-60.869,0.109-91.302c0.095-11.686,6.346-17.955,18.095-18.046c30.556-0.239,61.113-0.088,91.67-0.077
			c9.806,0.004,17.246,7.089,17.228,16.944c-0.063,31.296-0.169,62.595,0.074,93.89c0.063,8.359-7.946,16.494-16.365,16.313
			C823.211,319.028,807.558,319.271,791.909,319.272z M791.985,204.668c-13.791,0-27.583,0.129-41.372-0.059
			c-5.926-0.081-10.199,4.178-10.165,10.235c0.155,27.334,0.196,54.673-0.029,82.006c-0.052,6.309,4.644,10.872,10.878,10.815
			c26.963-0.241,53.935-0.3,80.896,0.053c5.854,0.076,11.461-5.286,11.377-11.458c-0.367-26.838-0.315-53.686-0.047-80.526
			c0.066-6.732-4.563-11.339-11.275-11.169C818.835,204.906,805.407,204.666,791.985,204.668z"/>
		<path fill="#242424" d="M981.878,319.272c-15.278,0.001-30.57-0.367-45.833,0.136c-9.408,0.311-17.465-7.97-17.354-17.262
			c0.371-30.802,0.25-61.608,0.079-92.412c-0.058-10.268,7.483-17.58,17.811-17.549c30.313,0.092,60.623-0.072,90.935,0.086
			c11.39,0.061,18.158,6.59,18.196,18.009c0.1,30.558,0.019,61.116,0.042,91.675c0.008,10.247-7.265,17.451-17.301,17.355
			C1012.93,319.163,997.403,319.272,981.878,319.272z M981.989,204.666c-13.422,0-26.85,0.249-40.262-0.104
			c-6.69-0.177-11.365,4.429-11.297,11.151c0.267,26.716,0.336,53.442-0.048,80.157c-0.099,6.763,5.44,11.938,11.725,11.853
			c26.592-0.37,53.192-0.341,79.787-0.038c7.332,0.083,11.731-4.539,11.657-11.55c-0.283-26.717-0.267-53.439-0.017-80.158
			c0.068-7.376-4.05-11.551-11.284-11.394C1008.837,204.874,995.411,204.666,981.989,204.666z"/>
		<path fill="#242424" d="M792.164,382.983c15.279,0,30.57,0.354,45.833-0.131c9.296-0.299,17.386,7.942,17.269,17.348
			c-0.386,30.677-0.261,61.361-0.08,92.042c0.062,10.365-7.188,17.719-17.758,17.687c-30.313-0.09-60.625-0.01-90.937-0.043
			c-11.757-0.012-18.319-6.877-18.375-18.224c-0.149-30.312,0.008-60.624-0.083-90.935c-0.03-10.321,7.279-17.946,17.555-17.803
			C761.111,383.146,776.639,382.983,792.164,382.983z M843.412,446.138c0-13.546,0.02-27.091-0.008-40.637
			c-0.013-6.525-4.155-10.786-10.597-10.795c-27.338-0.032-54.675,0.094-82.012-0.103c-5.554-0.04-10.393,4.532-10.356,10.194
			c0.175,27.583,0.154,55.168,0.024,82.751c-0.028,6.027,4.257,10.139,10.283,10.104c27.336-0.151,54.674-0.189,82.01,0.027
			c6.169,0.051,10.923-4.524,10.762-10.91C843.175,473.234,843.412,459.683,843.412,446.138z"/>
		<path fill="#242424" d="M918.832,445.935c0-15.278,0.354-30.569-0.132-45.832c-0.297-9.29,7.943-17.383,17.354-17.265
			c30.676,0.386,61.36,0.261,92.04,0.08c10.36-0.062,17.716,7.188,17.684,17.763c-0.09,30.313-0.021,60.623-0.038,90.936
			c-0.007,11.294-7.027,18.271-18.381,18.276c-30.188,0.015-60.377-0.082-90.565,0.051c-10.827,0.049-18.197-7.351-18.025-17.805
			C919.02,476.742,918.832,461.336,918.832,445.935z M982.372,497.589c13.423,0,26.851-0.199,40.266,0.084
			c6.732,0.143,10.924-4.12,10.878-10.658c-0.187-27.214-0.207-54.429,0.021-81.641c0.052-6.176-4.552-10.836-10.915-10.78
			c-27.089,0.232-54.18,0.085-81.271,0.106c-6.668,0.006-10.798,4.208-10.803,10.967c-0.018,26.967,0.14,53.937-0.109,80.9
			c-0.063,6.76,4.563,11.305,11.302,11.127C955.275,497.338,968.827,497.589,982.372,497.589z"/>
		<path fill="#242424" d="M601.186,319.272c-15.396,0-30.803-0.334-46.187,0.127c-9.124,0.272-17.198-7.96-17.092-17.13
			c0.354-30.791,0.259-61.587,0.065-92.381c-0.065-10.444,7.5-17.714,17.654-17.692c30.549,0.063,61.096-0.038,91.645,0.055
			c11.326,0.035,17.656,6.91,17.74,17.751c0.24,30.669,0.069,61.341,0.094,92.012c0.007,9.564-7.299,17.621-17.36,17.364
			C632.234,318.98,616.706,319.272,601.186,319.272z M601.281,307.563c13.67,0,27.348-0.277,41.007,0.131
			c5.75,0.172,11.247-5.538,11.2-11.212c-0.227-26.97-0.129-53.941-0.08-80.912c0.012-6.146-4.271-11.013-10.863-10.971
			c-27.463,0.17-54.928,0.176-82.39-0.017c-5.886-0.041-10.54,4.653-10.496,10.436c0.207,27.215,0.078,54.434,0.101,81.65
			c0.006,6.747,4.151,10.875,10.879,10.887C574.186,307.581,587.732,307.564,601.281,307.563z"/>
		<path fill="#242424" d="M855.12,65.565c0.001,15.396-0.31,30.803,0.11,46.188c0.278,10.158-7.749,17.535-17.587,17.516
			c-30.549-0.062-61.099,0.107-91.646-0.093c-10.931-0.071-17.903-6.504-17.918-17.978c-0.039-30.548-0.001-61.097-0.021-91.646
			c-0.006-9.955,7.158-17.43,17.162-17.396c31.164,0.102,62.331,0.202,93.491-0.07c8.547-0.075,16.718,7.961,16.514,16.549
			C854.854,34.271,855.119,49.921,855.12,65.565z M791.587,13.902c-13.547,0-27.099,0.199-40.641-0.094
			c-5.771-0.125-10.56,4.556-10.517,10.426c0.196,27.464,0.2,54.93,0.008,82.393c-0.047,6.57,4.777,10.969,11.273,10.947
			c26.725-0.087,53.453-0.193,80.176,0.081c6.242,0.063,11.738-5.527,11.668-11.496c-0.325-27.092-0.134-54.189-0.149-81.285
			c-0.004-6.89-4.151-10.955-11.176-10.967C818.683,13.885,805.136,13.901,791.587,13.902z"/>
		<path fill="#242424" d="M601.59,382.985c15.398-0.002,30.805,0.281,46.193-0.103c10.008-0.25,17.333,7.742,17.324,17.39
			c-0.028,30.674,0.154,61.349-0.102,92.021c-0.088,10.516-6.453,17.562-17.521,17.582c-30.673,0.063-61.349-0.005-92.021,0.036
			c-10.347,0.014-17.49-7.273-17.459-17.194c0.098-31.043,0.219-62.088-0.08-93.128c-0.086-8.747,7.963-16.943,16.731-16.719
			C570.293,383.273,585.945,382.985,601.59,382.985z M601.083,497.589c13.548,0,27.103-0.252,40.642,0.103
			c7.196,0.188,11.736-4.429,11.707-11.634c-0.111-26.357-0.252-52.72,0.088-79.071c0.097-7.465-5.578-12.532-12.248-12.442
			c-26.721,0.359-53.455,0.354-80.176-0.006c-6.103-0.082-11.578,5.43-11.5,11.341c0.354,26.846,0.312,53.7,0.047,80.547
			c-0.068,6.938,4.599,11.433,11.168,11.267C574.227,497.352,587.658,497.589,601.083,497.589z"/>
		<path fill="#242424" d="M918.833,65.722c-0.001-15.521,0.333-31.053-0.128-46.562c-0.271-9.135,7.962-17.207,17.122-17.103
			c30.794,0.354,61.594,0.234,92.391,0.078c10.249-0.052,17.561,7.147,17.544,17.5c-0.047,30.675,0.028,61.349-0.041,92.021
			c-0.024,11.056-7.037,17.412-17.596,17.499c-30.795,0.252-61.594,0.115-92.391,0.073c-9.274-0.013-17.171-7.203-16.981-16.945
			C919.056,96.771,918.833,81.244,918.833,65.722z M982.353,13.902c-13.794,0-27.588-0.029-41.381,0.014
			c-6.071,0.02-10.406,4.251-10.414,10.234c-0.036,27.465,0.137,54.931-0.14,82.393c-0.058,5.698,5.583,11.15,11.295,11.101
			c26.848-0.234,53.697-0.149,80.546-0.073c6.628,0.019,11.336-4.456,11.275-11.325c-0.238-27.216-0.229-54.437,0-81.653
			c0.053-6.183-4.545-10.94-10.912-10.788C1009.207,14.127,995.777,13.902,982.353,13.902z"/>
		<path fill="#242424" d="M538.042,65.368c0-15.393,0.341-30.796-0.128-46.174c-0.279-9.177,7.973-17.235,17.08-17.133
			c31.027,0.346,62.064,0.29,93.094,0.041c9.715-0.078,17.022,7.75,17.016,17.305c-0.019,30.785,0.045,61.571-0.035,92.355
			c-0.027,10.416-7.018,17.429-17.411,17.456c-30.785,0.081-61.571,0.016-92.356,0.038c-9.619,0.007-17.609-7.305-17.359-17.343
			C538.326,96.407,538.042,80.884,538.042,65.368z M549.752,65.459c0,13.677,0.27,27.362-0.126,41.028
			c-0.167,5.774,5.593,11.201,11.253,11.152c26.859-0.228,53.725-0.204,80.583-0.027c6.71,0.044,12.042-5.32,11.998-11.973
			c-0.178-26.736-0.231-53.478,0.043-80.213c0.064-6.257-5.501-11.727-11.53-11.657c-27.104,0.308-54.215,0.122-81.322,0.141
			c-6.721,0.005-10.881,4.17-10.893,10.887C549.732,38.352,549.75,51.905,549.752,65.459z"/>
	</g>
</g>
</svg>
