<?xml version="1.0" encoding="utf-8"?>
<!-- Generator: Adobe Illustrator 16.0.0, SVG Export Plug-In . SVG Version: 6.00 Build 0)  -->
<!DOCTYPE svg PUBLIC "-//W3C//DTD SVG 1.1//EN" "http://www.w3.org/Graphics/SVG/1.1/DTD/svg11.dtd">
<svg version="1.1" id="Calque_1" xmlns="http://www.w3.org/2000/svg" xmlns:xlink="http://www.w3.org/1999/xlink" x="0px" y="0px"
	 width="1050px" height="512px" viewBox="0 0 1050 512" enable-background="new 0 0 1050 512" xml:space="preserve">
<g>
	<g>
		<g>
			<path fill="#D81F2A" d="M2,125.849v259.185c0,35.714,29.135,64.849,64.849,64.849h209.478c35.715,0,64.85-29.135,64.85-64.849
				v-41.979c0-7.102-5.744-12.845-12.845-12.845s-12.845,5.743-12.845,12.845v41.979c0,21.616-17.648,39.265-39.264,39.265H66.849
				c-21.616,0-39.264-17.648-39.264-39.265V125.849c0-21.616,17.648-39.265,39.264-39.265h209.478
				c21.617,0,39.265,17.648,39.265,39.265v41.979c0,7.101,5.743,12.844,12.845,12.844c7.101,0,12.844-5.743,12.844-12.844v-41.979
				c0-35.714-29.135-64.849-64.848-64.849H66.849C31.135,61,2,90.03,2,125.849z"/>
			<path fill="#D81F2A" d="M404.457,352.035c2.506,2.506,5.744,3.759,9.086,3.759c3.341,0,6.578-1.253,9.084-3.759l87.613-87.613
				c5.013-5.013,5.013-13.054,0-18.066l-87.613-87.613c-5.012-5.012-13.053-5.012-18.065,0c-5.013,5.013-5.013,13.054,0,18.066
				l65.788,65.788H230.275c-7.101,0-12.844,5.743-12.844,12.845c0,7.101,5.743,12.844,12.844,12.844h239.971l-65.789,65.788
				C399.445,338.981,399.445,347.127,404.457,352.035z"/>
		</g>
	</g>
	<g>
	</g>
	<g>
	</g>
	<g>
	</g>
	<g>
	</g>
	<g>
	</g>
	<g>
	</g>
	<g>
	</g>
	<g>
	</g>
	<g>
	</g>
	<g>
	</g>
	<g>
	</g>
	<g>
	</g>
	<g>
	</g>
	<g>
	</g>
	<g>
	</g>
</g>
<g>
	<g>
		<g>
			<path fill="#6BBF60" d="M538,125.849v259.185c0,35.715,29.135,64.85,64.85,64.85h209.478c35.714,0,64.849-29.135,64.849-64.85
				v-41.979c0-7.102-5.742-12.844-12.845-12.844c-7.101,0-12.845,5.742-12.845,12.844v41.979c0,21.617-17.647,39.265-39.264,39.265
				H602.85c-21.617,0-39.266-17.646-39.266-39.265V125.849c0-21.615,17.648-39.264,39.266-39.264h209.478
				c21.616,0,39.265,17.648,39.265,39.264v41.979c0,7.101,5.743,12.844,12.844,12.844c7.103,0,12.846-5.743,12.846-12.844v-41.979
				c0-35.714-29.135-64.849-64.85-64.849H602.85C567.135,61,538,90.03,538,125.849z"/>
			<path fill="#6BBF60" d="M940.457,352.035c2.506,2.506,5.743,3.76,9.085,3.76s6.579-1.254,9.085-3.76l87.613-87.613
				c5.013-5.012,5.013-13.053,0-18.065l-87.613-87.612c-5.013-5.014-13.054-5.014-18.064,0c-5.014,5.012-5.014,13.053,0,18.064
				l65.787,65.789H766.275c-7.102,0-12.844,5.743-12.844,12.844c0,7.103,5.742,12.845,12.844,12.845h239.971l-65.788,65.789
				C935.445,338.981,935.445,347.127,940.457,352.035z"/>
		</g>
	</g>
</g>
</svg>
