<?xml version="1.0" encoding="utf-8"?>
<!-- Generator: Adobe Illustrator 19.0.0, SVG Export Plug-In . SVG Version: 6.00 Build 0)  -->
<svg version="1.1" id="Calque_1" xmlns="http://www.w3.org/2000/svg" xmlns:xlink="http://www.w3.org/1999/xlink" x="0px" y="0px"
	 viewBox="-169 170.4 512 512" style="enable-background:new -169 170.4 512 512;" xml:space="preserve">
<style type="text/css">
	.st0{fill:#FFFFFF;}
</style>
<g>
	<path class="st0" d="M343,234.4c0-12.8-8.5-21.3-21.3-21.3h-469.3c-12.8,0-21.3,8.5-21.3,21.3v42.7c0,12.8,8.5,21.3,21.3,21.3
		h469.3c12.8,0,21.3-8.5,21.3-21.3V234.4z"/>
	<path class="st0" d="M343,405.1c0-12.8-8.5-21.3-21.3-21.3h-469.3c-12.8,0-21.3,8.5-21.3,21.3v42.7c0,12.8,8.5,21.3,21.3,21.3
		h469.3c12.8,0,21.3-8.5,21.3-21.3V405.1z"/>
	<path class="st0" d="M343,575.7c0-12.8-8.5-21.3-21.3-21.3h-469.3c-12.8,0-21.3,8.5-21.3,21.3v42.7c0,12.8,8.5,21.3,21.3,21.3
		h469.3c12.8,0,21.3-8.5,21.3-21.3V575.7z"/>
</g>
</svg>
