<?xml version="1.0" encoding="utf-8"?>
<!-- Generator: Adobe Illustrator 19.0.0, SVG Export Plug-In . SVG Version: 6.00 Build 0)  -->
<svg version="1.1" id="Capa_1" xmlns="http://www.w3.org/2000/svg" xmlns:xlink="http://www.w3.org/1999/xlink" x="0px" y="0px"
	 viewBox="-169 170.4 512 512" style="enable-background:new -169 170.4 512 512;" xml:space="preserve">
<style type="text/css">
	.st0{fill:#242424;}
</style>
<g>
	<path class="st0" d="M337.7,476.9c18.8-101.6-35.9-204.2-130.8-245.3c-124-53.7-263.7,13-303.1,137.8l-57.6-17.5
		c-3.2-1-6.1,2.5-4.9,5.8l51.2,145.1c0.9,2.5,3.8,3.3,5.9,1.8l123.2-92.3c2.8-2.1,2.2-6.6-0.9-7.6l-57.5-17.5
		c28.1-87.6,124.3-135.3,212-102.2c75.4,28.5,118.8,110.2,100.4,188.6C255.9,557,176.6,608.7,95.8,597.7c-15-2-29.2,7.3-33.6,21.7
		c-5.4,17.9,6.2,36.8,24.8,39.3C202.1,674.6,315.2,598.2,337.7,476.9z"/>
</g>
</svg>
