<?xml version="1.0" encoding="utf-8"?>
<!-- Generator: Adobe Illustrator 16.0.0, SVG Export Plug-In . SVG Version: 6.00 Build 0)  -->
<!DOCTYPE svg PUBLIC "-//W3C//DTD SVG 1.1//EN" "http://www.w3.org/Graphics/SVG/1.1/DTD/svg11.dtd">
<svg version="1.1" id="Capa_1" xmlns="http://www.w3.org/2000/svg" xmlns:xlink="http://www.w3.org/1999/xlink" x="0px" y="0px"
	 width="512px" height="512px" viewBox="0 0 512 512" enable-background="new 0 0 512 512" xml:space="preserve">
<g>
	<path fill="#FBE565" d="M506.709,306.471c18.806-101.625-35.866-204.227-130.75-245.251
		C251.912,7.524,112.219,74.223,72.834,199.005l-57.648-17.488c-3.203-0.972-6.119,2.516-4.937,5.825l51.166,145.147
		c0.893,2.457,3.795,3.338,5.904,1.791l123.184-92.257c2.821-2.094,2.234-6.645-0.869-7.586l-57.549-17.458
		c28.09-87.55,124.328-135.299,211.982-102.15c75.417,28.452,118.834,110.152,100.391,188.605
		c-19.54,83.148-98.831,134.836-179.662,123.868c-15.01-2.039-29.214,7.314-33.586,21.727c-5.436,17.915,6.227,36.754,24.793,39.326
		C371.079,504.246,484.206,427.848,506.709,306.471z"/>
</g>
</svg>
