<?xml version="1.0" encoding="utf-8"?>
<!-- Generator: Adobe Illustrator 19.0.0, SVG Export Plug-In . SVG Version: 6.00 Build 0)  -->
<svg version="1.1" id="Capa_1" xmlns="http://www.w3.org/2000/svg" xmlns:xlink="http://www.w3.org/1999/xlink" x="0px" y="0px"
	 viewBox="-169 170.4 512 512" style="enable-background:new -169 170.4 512 512;" xml:space="preserve">
<style type="text/css">
	.st0{fill:#242424;}
</style>
<g>
	<path class="st0" d="M213,683.4c-83.3,0-166.7,0-250,0c-0.6-0.3-1.1-0.8-1.7-0.9c-31.4-6-50.3-28.7-50.3-60.7
		c0-102.1,0-204.3,0-306.4c0-1.9,0-3.8,0-5.7c118.4,0,235.9,0,353.7,0c0.1,1.4,0.2,2.5,0.2,3.7c0,104,0.2,207.9-0.2,311.9
		c-0.1,23.7-11.9,41.2-33.1,51.8C225.9,680,219.3,681.3,213,683.4z M28.8,604.7c0-79.1,0-157.6,0-236.1c-13.2,0-26.1,0-39.2,0
		c0,78.7,0,157.1,0,236.1c1.9,0,3.5,0,5.1,0C6,604.7,17.3,604.7,28.8,604.7z M107.6,604.4c0-78.8,0-157.2,0-235.8
		c-13.3,0-26.2,0-39.2,0c0,78.7,0,157.1,0,235.8C81.5,604.4,94.4,604.4,107.6,604.4z M147.2,368.4c0,78.9,0,157.3,0,236
		c13.1,0,26,0,39.1,0c0-78.8,0-157.3,0-236C173.1,368.4,160.4,368.4,147.2,368.4z"/>
	<path class="st0" d="M142,171.4c3.6,1.1,7.3,1.9,10.9,3.2c22.2,7.9,31.7,25,33.8,47.3c0.2,2.6,0.3,5.3,0.5,8.7c2.1,0,4,0,6,0
		c22.3,0,44.7,0,67,0c15.7,0,21.1,4.1,25.3,19.8c6.1,0,12.3,0,18.9,0c0,13.1,0,25.7,0,38.6c-144.1,0-288,0-432.3,0
		c0-12.7,0-25.4,0-38.5c6.3,0,12.4,0,18.7,0c0.3-1.2,0.6-2.2,0.8-3.1c2.5-11,9.5-16.8,20.9-16.9c23.3-0.1,46.6,0,70,0
		c2,0,3.9,0,6.5,0c0.1-2.7,0.2-4.9,0.4-7.2c1-12.1,3.9-23.5,11.7-33.4c7.1-8.9,16.2-14,27-16.8c2.1-0.5,4.1-1.2,6.1-1.9
		C70,171.4,106,171.4,142,171.4z M29.5,230.3c39.2,0,77.7,0,116.2,0c1.6-13.3-2-17.8-14.8-18.7c-2-0.1-4-0.2-6-0.2
		c-24.6,0-49.3-0.1-73.9,0c-4.3,0-8.6,0.5-12.9,1.2c-3.9,0.6-6.7,3-7.3,7.1C30.3,223.1,30,226.5,29.5,230.3z"/>
</g>
</svg>
