<?xml version="1.0" encoding="utf-8"?>
<!-- Generator: Adobe Illustrator 16.0.0, SVG Export Plug-In . SVG Version: 6.00 Build 0)  -->
<!DOCTYPE svg PUBLIC "-//W3C//DTD SVG 1.1//EN" "http://www.w3.org/Graphics/SVG/1.1/DTD/svg11.dtd">
<svg version="1.1" id="Calque_1" xmlns="http://www.w3.org/2000/svg" xmlns:xlink="http://www.w3.org/1999/xlink" x="0px" y="0px"
	 width="1050px" height="512px" viewBox="0 0 1050 512" enable-background="new 0 0 1050 512" xml:space="preserve">
<g>
	<g>
		<path fill="#FFFFFF" d="M390.805,248.951l-187.734-128c-2.62-1.775-5.999-1.972-8.798-0.495c-2.791,1.477-4.54,4.378-4.54,7.544
			v256c0,3.165,1.749,6.066,4.548,7.543c1.246,0.666,2.62,0.99,3.985,0.99c1.681,0,3.362-0.504,4.804-1.485l187.734-128
			c2.329-1.587,3.729-4.224,3.729-7.048C394.533,253.175,393.134,250.538,390.805,248.951z M206.8,367.846V144.153L370.854,256
			L206.8,367.846z"/>
		<path fill="#FFFFFF" d="M258,0C116.842,0,2,114.841,2,256c0,141.158,114.842,256,256,256s256-114.842,256-256
			C514,114.841,399.158,0,258,0z M258,494.933C126.254,494.933,19.067,387.746,19.067,256C19.067,124.253,126.254,17.066,258,17.066
			S496.934,124.253,496.934,256C496.934,387.746,389.746,494.933,258,494.933z"/>
	</g>
	<g>
	</g>
	<g>
	</g>
	<g>
	</g>
	<g>
	</g>
	<g>
	</g>
	<g>
	</g>
	<g>
	</g>
	<g>
	</g>
	<g>
	</g>
	<g>
	</g>
	<g>
	</g>
	<g>
	</g>
	<g>
	</g>
	<g>
	</g>
	<g>
	</g>
</g>
<g>
	<g>
		<path fill="#242424" d="M925.805,248.951l-187.734-128c-2.619-1.775-5.998-1.972-8.797-0.495c-2.791,1.477-4.54,4.378-4.54,7.544
			v256c0,3.165,1.749,6.066,4.548,7.543c1.246,0.666,2.62,0.99,3.985,0.99c1.681,0,3.362-0.504,4.804-1.485l187.734-128
			c2.329-1.587,3.729-4.224,3.729-7.048C929.533,253.175,928.134,250.538,925.805,248.951z M741.8,367.846V144.153L905.854,256
			L741.8,367.846z"/>
		<path fill="#242424" d="M793,0C651.842,0,537,114.841,537,256c0,141.158,114.842,256,256,256s256-114.842,256-256
			C1049,114.841,934.158,0,793,0z M793,494.933c-131.746,0-238.934-107.187-238.934-238.933
			c0-131.747,107.188-238.934,238.934-238.934S1031.934,124.253,1031.934,256C1031.934,387.746,924.746,494.933,793,494.933z"/>
	</g>
	<g>
	</g>
	<g>
	</g>
	<g>
	</g>
	<g>
	</g>
	<g>
	</g>
	<g>
	</g>
	<g>
	</g>
	<g>
	</g>
	<g>
	</g>
	<g>
	</g>
	<g>
	</g>
	<g>
	</g>
	<g>
	</g>
	<g>
	</g>
	<g>
	</g>
</g>
</svg>
