<?xml version="1.0" encoding="utf-8"?>
<!-- Generator: Adobe Illustrator 19.0.0, SVG Export Plug-In . SVG Version: 6.00 Build 0)  -->
<svg version="1.1" id="Calque_1" xmlns="http://www.w3.org/2000/svg" xmlns:xlink="http://www.w3.org/1999/xlink" x="0px" y="0px"
	 viewBox="0 0 850.4 850.4" style="enable-background:new 0 0 850.4 850.4;" xml:space="preserve">
<style type="text/css">
	.st0{fill:#FCE367;}
</style>
<g id="XMLID_4_">
	<path id="XMLID_25_" class="st0" d="M8.8,86.7c69.1,0,138.1,0,207.7,0c0,17.4,0,34.3,0,51.8c-51.6,0-103,0-155.3,0
		c0,52.1,0,103.7,0,156.6c-18.1,0-35.3,0-52.5,0C8.8,225.5,8.8,156.1,8.8,86.7z"/>
	<path id="XMLID_24_" class="st0" d="M8.8,555.4c17,0,34,0,51.9,0c0,52.2,0,103.8,0,156c52.3,0,103.7,0,155.7,0
		c0,17.5,0,34.4,0,52.4c-69.2,0-138.4,0-207.7,0C8.8,694.3,8.8,624.8,8.8,555.4z"/>
	<path id="XMLID_23_" class="st0" d="M633.2,555c-138.9,0-277,0-415.6,0c0-86.5,0-172.6,0-259.4c138.3,0,276.7,0,415.6,0
		C633.2,381.8,633.2,468.1,633.2,555z"/>
	<path id="XMLID_22_" class="st0" d="M789.8,294.3c0-52,0-103.4,0-155.4c-52,0-103.4,0-155.4,0c0-17.4,0-34.3,0-51.8
		c68.9,0,137.9,0,207.2,0c0,69,0,137.8,0,207.2C824.8,294.3,807.9,294.3,789.8,294.3z"/>
	<path id="XMLID_21_" class="st0" d="M634.2,763.2c0-17,0-33.7,0-51.3c51.7,0,103.3,0,155.7,0c0-52.5,0-104.1,0-156.1
		c17.6,0,34.3,0,51.5,0c0,69,0,137.9,0,207.4C772.5,763.2,703.6,763.2,634.2,763.2z"/>
</g>
</svg>
